<svg width="320" height="196" viewBox="0 0 320 196" fill="none" xmlns="http://www.w3.org/2000/svg">
<g clip-path="url(#clip0_1292_6465)">
<rect width="320" height="196" rx="10" fill="#67DD19"/>
<path d="M320.102 -17H0.101562V196.333H320.102V-17Z" fill="url(#paint0_linear_1292_6465)"/>
<mask id="mask0_1292_6465" style="mask-type:luminance" maskUnits="userSpaceOnUse" x="0" y="-17" width="321" height="214">
<path d="M320.016 -17H0.101562V196.333H320.016V-17Z" fill="white"/>
</mask>
<g mask="url(#mask0_1292_6465)">
<path d="M258.746 68.9735H245.69C244.666 68.9735 243.813 68.1202 243.813 67.0962V64.4935C243.813 63.4695 242.96 62.6162 241.936 62.6162H185.061C184.037 62.6162 183.184 63.4695 183.184 64.4935V73.1549C183.184 74.1789 182.33 75.0322 181.306 75.0322H146.746C145.722 75.0322 144.869 75.8855 144.869 76.9095V84.8882C144.869 85.9122 144.016 86.7655 142.992 86.7655H115.557C114.533 86.7655 113.68 87.6189 113.68 88.6429V92.0135C113.68 93.0375 114.533 93.8909 115.557 93.8909H151.312C152.336 93.8909 153.189 94.7442 153.189 95.7682V99.2242C153.189 100.248 154.042 101.102 155.066 101.102H191.76C192.784 101.102 193.637 100.248 193.637 99.2242V78.7869C193.637 77.7629 194.49 76.9095 195.514 76.9095H220.986C222.01 76.9095 222.864 77.7629 222.864 78.7869V79.5549C222.864 80.5789 223.717 81.4322 224.741 81.4322H258.746C259.77 81.4322 260.624 80.5789 260.624 79.5549V70.8082C260.624 69.8269 259.813 68.9735 258.746 68.9735Z" fill="#1D3331"/>
</g>
<mask id="mask1_1292_6465" style="mask-type:luminance" maskUnits="userSpaceOnUse" x="0" y="-17" width="321" height="214">
<path d="M320.016 -17H0.101562V196.333H320.016V-17Z" fill="white"/>
</mask>
<g mask="url(#mask1_1292_6465)">
<path d="M1.98073 1.00537H28.1781C29.2021 1.00537 30.0554 1.8587 30.0554 2.8827V6.7227C30.0554 7.7467 30.9087 8.60004 31.9327 8.60004H86.5461C87.5701 8.60004 88.4234 9.45337 88.4234 10.4774V13.464C88.4234 14.488 87.5701 15.3414 86.5461 15.3414H48.2741C47.2501 15.3414 46.3967 16.1947 46.3967 17.2187V21.528C46.3967 22.552 45.5434 23.4054 44.5194 23.4054H2.0234C0.999402 23.4054 0.146065 22.552 0.146065 21.528V2.8827C0.103398 1.8587 0.956733 1.00537 1.98073 1.00537Z" fill="#1D3331"/>
</g>
<mask id="mask2_1292_6465" style="mask-type:luminance" maskUnits="userSpaceOnUse" x="0" y="-17" width="321" height="214">
<path d="M320.016 -17H0.101562V196.333H320.016V-17Z" fill="white"/>
</mask>
<g mask="url(#mask2_1292_6465)">
<path d="M251.28 17.7308H305.338C306.362 17.7308 307.216 16.8775 307.216 15.8535V13.7201C307.216 12.6961 308.069 11.8428 309.093 11.8428H337.253C338.277 11.8428 339.13 10.9895 339.13 9.96547V5.65614C339.13 4.63214 338.277 3.77881 337.253 3.77881H280.592C279.568 3.77881 278.714 4.63214 278.714 5.65614C278.714 6.68014 277.861 7.53347 276.837 7.53347H251.28C250.256 7.53347 249.402 8.38681 249.402 9.41081V15.8535C249.402 16.9201 250.256 17.7308 251.28 17.7308Z" fill="#1D3331"/>
</g>
<path opacity="0.29" d="M0.1875 158.659H128.017V129.816C128.017 124.227 132.539 119.704 138.129 119.704C143.718 119.704 148.241 124.227 148.241 129.816V139.16H151.612C156.305 139.16 160.102 142.957 160.102 147.651V182.765H236.646V146.541C236.646 140.483 241.553 135.576 247.612 135.576C253.67 135.576 258.577 140.483 258.577 146.541V167.405H320.017V196.333H0.1875V158.659Z" fill="url(#paint1_linear_1292_6465)"/>
<mask id="mask3_1292_6465" style="mask-type:luminance" maskUnits="userSpaceOnUse" x="0" y="-17" width="321" height="214">
<path d="M320.102 -17H0.101562V196.333H320.102V-17Z" fill="white"/>
</mask>
<g mask="url(#mask3_1292_6465)">
<path d="M181.905 196.334H145.297V119.747C145.297 109.635 153.489 101.443 163.601 101.443C173.713 101.443 181.905 109.635 181.905 119.747V196.334Z" fill="url(#paint2_linear_1292_6465)"/>
</g>
<mask id="mask4_1292_6465" style="mask-type:luminance" maskUnits="userSpaceOnUse" x="0" y="-17" width="321" height="214">
<path d="M320.102 -17H0.101562V196.333H320.102V-17Z" fill="white"/>
</mask>
<g mask="url(#mask4_1292_6465)">
<path d="M89.6163 196.333H17.7656V92.0132C17.7656 72.1732 33.851 56.0879 53.691 56.0879C73.531 56.0879 89.6163 72.1732 89.6163 92.0132V196.333Z" fill="url(#paint3_linear_1292_6465)"/>
<path d="M40.4634 64.5361C41.1034 65.6881 40.0367 67.5228 38.0741 68.6321C36.1114 69.7841 33.9781 69.7841 33.3381 68.6321C32.6981 67.4801 33.7647 65.6454 35.7274 64.5361C37.6901 63.4268 39.8234 63.4268 40.4634 64.5361Z" fill="url(#paint4_linear_1292_6465)"/>
<path d="M82.8316 82.1143C81.7223 82.8397 79.845 81.8583 78.6076 79.981C77.3703 78.061 77.2423 75.9703 78.3516 75.245C79.461 74.5197 81.3383 75.501 82.5756 77.3783C83.813 79.2557 83.941 81.389 82.8316 82.1143Z" fill="url(#paint5_linear_1292_6465)"/>
<path d="M35.9427 71.9172C36.7534 72.7278 36.2841 74.5198 34.8761 75.9278C33.4681 77.3358 31.6761 77.8052 30.8654 76.9945C30.0547 76.1838 30.5241 74.3918 31.9321 72.9838C33.3827 71.5758 35.1321 71.1065 35.9427 71.9172Z" fill="url(#paint6_linear_1292_6465)"/>
<path d="M29.542 72.0027C30.1394 72.5147 29.8834 73.8374 28.9874 74.8614C28.0914 75.9281 26.854 76.3547 26.214 75.8001C25.6167 75.2881 25.8727 73.9654 26.7687 72.9414C27.6647 71.8747 28.902 71.4481 29.542 72.0027Z" fill="url(#paint7_linear_1292_6465)"/>
<path d="M28.2616 104.344C29.755 105.581 30.651 107.416 30.651 109.336V196.333H17.7656V109.336C17.7656 103.917 24.0376 100.931 28.2616 104.344Z" fill="url(#paint8_linear_1292_6465)"/>
<path d="M77.543 196.333V150.296C77.543 148.589 78.2683 146.925 79.591 145.773C83.4736 142.317 89.6176 145.091 89.6176 150.296V196.333H77.543Z" fill="url(#paint9_linear_1292_6465)"/>
<path d="M72.5924 196.333H53.6484V164.29C53.6484 159.085 57.8724 154.818 63.1204 154.818C68.3258 154.818 72.5924 159.042 72.5924 164.29V196.333Z" fill="url(#paint10_linear_1292_6465)"/>
</g>
<mask id="mask5_1292_6465" style="mask-type:luminance" maskUnits="userSpaceOnUse" x="0" y="-17" width="321" height="214">
<path d="M320.102 -17H0.101562V196.333H320.102V-17Z" fill="white"/>
</mask>
<g mask="url(#mask5_1292_6465)">
<path d="M232.249 196.333H166.414V45.2505C166.414 27.0745 181.134 12.3545 199.31 12.3545C217.486 12.3545 232.206 27.0745 232.206 45.2505V196.333H232.249Z" fill="url(#paint11_linear_1292_6465)"/>
<path opacity="0.18" d="M213.175 45.2507V196.333H185.441V45.2507C185.441 27.0747 191.671 12.312 199.308 12.312C203.148 12.312 206.604 15.9813 209.121 21.9547C211.639 27.928 213.175 36.1627 213.175 45.2507Z" fill="url(#paint12_linear_1292_6465)"/>
<path d="M187.234 20.0771C187.832 21.1011 186.85 22.8077 185.058 23.8317C183.266 24.8557 181.304 24.8557 180.706 23.8317C180.109 22.8077 181.09 21.1011 182.882 20.0771C184.674 19.0531 186.637 19.0531 187.234 20.0771Z" fill="url(#paint13_linear_1292_6465)"/>
<path d="M226.019 36.1624C224.995 36.8024 223.288 35.9491 222.136 34.1997C220.984 32.4504 220.899 30.5304 221.88 29.8477C222.904 29.2077 224.611 30.0611 225.763 31.8104C226.915 33.5597 227.043 35.5224 226.019 36.1624Z" fill="url(#paint14_linear_1292_6465)"/>
<path d="M183.097 26.8188C183.822 27.5441 183.396 29.2081 182.116 30.4881C180.836 31.7681 179.214 32.1948 178.446 31.4694C177.721 30.7441 178.148 29.0801 179.428 27.8001C180.708 26.5201 182.329 26.0934 183.097 26.8188Z" fill="url(#paint15_linear_1292_6465)"/>
<path d="M177.207 26.9039C177.762 27.3733 177.549 28.5679 176.695 29.5493C175.842 30.5306 174.733 30.9146 174.178 30.4026C173.623 29.9333 173.837 28.7386 174.69 27.7573C175.501 26.8186 176.653 26.4346 177.207 26.9039Z" fill="url(#paint16_linear_1292_6465)"/>
<path d="M176.014 56.5145C177.379 57.6238 178.19 59.3305 178.19 61.1225V196.333H166.371V61.1225C166.414 56.1731 172.174 53.3998 176.014 56.5145Z" fill="url(#paint17_linear_1292_6465)"/>
<path d="M221.199 196.333V154.179C221.199 152.6 221.882 151.107 223.077 150.04C226.661 146.883 232.25 149.4 232.25 154.179V196.333H221.199Z" fill="url(#paint18_linear_1292_6465)"/>
<path d="M216.674 196.333H199.309V166.979C199.309 162.2 203.191 158.317 207.97 158.317C212.749 158.317 216.631 162.2 216.631 166.979V196.333H216.674Z" fill="url(#paint19_linear_1292_6465)"/>
</g>
<mask id="mask6_1292_6465" style="mask-type:luminance" maskUnits="userSpaceOnUse" x="0" y="-17" width="321" height="214">
<path d="M320.102 -17H0.101562V196.333H320.102V-17Z" fill="white"/>
</mask>
<g mask="url(#mask6_1292_6465)">
<path d="M117.52 196.334H77.9258V118.766C77.9258 107.843 86.8004 98.9683 97.7231 98.9683C108.646 98.9683 117.52 107.843 117.52 118.766V196.334Z" fill="url(#paint20_linear_1292_6465)"/>
<path d="M90.4707 103.619C90.812 104.259 90.2573 105.24 89.148 105.88C88.0813 106.52 86.8867 106.52 86.5453 105.88C86.204 105.24 86.7587 104.259 87.868 103.619C88.9347 103.022 90.0867 103.022 90.4707 103.619Z" fill="url(#paint21_linear_1292_6465)"/>
<path d="M113.765 113.304C113.168 113.688 112.101 113.176 111.419 112.11C110.736 111.043 110.651 109.891 111.291 109.507C111.931 109.123 112.955 109.635 113.637 110.702C114.32 111.726 114.363 112.92 113.765 113.304Z" fill="url(#paint22_linear_1292_6465)"/>
<path d="M87.9546 107.672C88.3812 108.099 88.1252 109.123 87.3572 109.891C86.5892 110.659 85.6079 110.915 85.1386 110.488C84.6692 110.062 84.9679 109.038 85.7359 108.27C86.5466 107.502 87.5279 107.246 87.9546 107.672Z" fill="url(#paint23_linear_1292_6465)"/>
<path d="M84.4119 107.715C84.7532 108.014 84.6252 108.696 84.1132 109.294C83.6012 109.891 82.9186 110.104 82.5772 109.806C82.2359 109.507 82.3639 108.824 82.8759 108.227C83.3879 107.63 84.1132 107.416 84.4119 107.715Z" fill="url(#paint24_linear_1292_6465)"/>
<path opacity="0.43" d="M83.7291 125.549C84.5825 126.232 85.0518 127.256 85.0518 128.323V196.333H77.9691V128.28C77.9265 125.293 81.3825 123.672 83.7291 125.549Z" fill="url(#paint25_linear_1292_6465)"/>
<path opacity="0.43" d="M110.863 196.334V150.851C110.863 149.912 111.29 148.974 111.973 148.376C114.106 146.456 117.519 147.992 117.519 150.851V196.334H110.863Z" fill="url(#paint26_linear_1292_6465)"/>
<path opacity="0.43" d="M108.133 196.334H97.7227V158.574C97.7227 155.715 100.069 153.368 102.928 153.368C105.787 153.368 108.133 155.715 108.133 158.574V196.334Z" fill="url(#paint27_linear_1292_6465)"/>
</g>
<mask id="mask7_1292_6465" style="mask-type:luminance" maskUnits="userSpaceOnUse" x="0" y="-17" width="321" height="214">
<path d="M320.102 -17H0.101562V196.333H320.102V-17Z" fill="white"/>
</mask>
<g mask="url(#mask7_1292_6465)">
<path d="M344.634 196.334H305.039V118.766C305.039 107.843 313.914 98.9683 324.836 98.9683C335.759 98.9683 344.634 107.843 344.634 118.766V196.334Z" fill="url(#paint28_linear_1292_6465)"/>
<path d="M317.541 103.619C317.882 104.259 317.328 105.24 316.218 105.88C315.152 106.52 313.957 106.52 313.616 105.88C313.274 105.24 313.829 104.259 314.938 103.619C316.048 103.022 317.2 103.022 317.541 103.619Z" fill="url(#paint29_linear_1292_6465)"/>
<path d="M315.065 107.672C315.491 108.099 315.235 109.123 314.467 109.891C313.699 110.659 312.718 110.915 312.249 110.488C311.822 110.062 312.078 109.038 312.846 108.27C313.656 107.502 314.638 107.246 315.065 107.672Z" fill="url(#paint30_linear_1292_6465)"/>
<path d="M311.525 107.715C311.866 108.014 311.738 108.696 311.226 109.294C310.714 109.891 310.032 110.104 309.691 109.806C309.349 109.507 309.477 108.824 309.989 108.227C310.501 107.672 311.184 107.416 311.525 107.715Z" fill="url(#paint31_linear_1292_6465)"/>
<path d="M310.842 125.549C311.696 126.232 312.165 127.256 312.165 128.323V196.333H305.082V128.28C305.04 125.293 308.496 123.672 310.842 125.549Z" fill="url(#paint32_linear_1292_6465)"/>
</g>
<mask id="mask8_1292_6465" style="mask-type:luminance" maskUnits="userSpaceOnUse" x="0" y="-17" width="321" height="214">
<path d="M320.102 -17H0.101562V196.333H320.102V-17Z" fill="white"/>
</mask>
<g mask="url(#mask8_1292_6465)">
<path d="M300.262 196.333H254.012V105.709C254.012 92.952 264.38 82.584 277.137 82.584C289.894 82.584 300.262 92.952 300.262 105.709V196.333Z" fill="url(#paint33_linear_1292_6465)"/>
</g>
<mask id="mask9_1292_6465" style="mask-type:luminance" maskUnits="userSpaceOnUse" x="0" y="-17" width="321" height="214">
<path d="M320.102 -17H0.101562V196.333H320.102V-17Z" fill="white"/>
</mask>
<g mask="url(#mask9_1292_6465)">
<path d="M8.97723 196.333H-37.2734V105.709C-37.2734 92.952 -26.9054 82.584 -14.1481 82.584C-1.39077 82.584 8.97723 92.952 8.97723 105.709V196.333Z" fill="url(#paint34_linear_1292_6465)"/>
</g>
<mask id="mask10_1292_6465" style="mask-type:luminance" maskUnits="userSpaceOnUse" x="0" y="-17" width="321" height="214">
<path d="M320.102 -17H0.101562V196.333H320.102V-17Z" fill="white"/>
</mask>
<g mask="url(#mask10_1292_6465)">
<path d="M272.017 196.333H242.406V157.592C242.406 149.4 249.02 142.787 257.212 142.787C265.404 142.787 272.017 149.4 272.017 157.592V196.333Z" fill="url(#paint35_linear_1292_6465)"/>
</g>
<path d="M186.512 82.1149L187.109 83.5656C187.152 83.6936 187.237 83.7789 187.365 83.8216L188.816 84.4189C189.2 84.5469 189.2 85.1016 188.816 85.2296L187.365 85.8269C187.237 85.8696 187.152 85.9549 187.109 86.0829L186.512 87.5336C186.384 87.9176 185.829 87.9176 185.701 87.5336L185.104 86.0829C185.061 85.9549 184.976 85.8696 184.848 85.8269L183.397 85.2296C183.013 85.1016 183.013 84.5469 183.397 84.4189L184.848 83.8216C184.976 83.7789 185.061 83.6936 185.104 83.5656L185.701 82.1149C185.829 81.7736 186.384 81.7736 186.512 82.1149Z" fill="url(#paint36_radial_1292_6465)"/>
<path d="M194.321 78.1469L194.918 79.5976C194.961 79.7256 195.046 79.8109 195.174 79.8536L196.625 80.4509C197.009 80.5789 197.009 81.1336 196.625 81.2616L195.174 81.8589C195.046 81.9016 194.961 81.9869 194.918 82.1149L194.321 83.5656C194.193 83.9496 193.638 83.9496 193.51 83.5656L192.913 82.1149C192.87 81.9869 192.785 81.9016 192.657 81.8589L191.206 81.2616C190.822 81.1336 190.822 80.5789 191.206 80.4509L192.657 79.8536C192.785 79.8109 192.87 79.7256 192.913 79.5976L193.51 78.1469C193.681 77.7629 194.193 77.7629 194.321 78.1469Z" fill="url(#paint37_radial_1292_6465)"/>
<path d="M186.512 74.0507L187.109 75.5014C187.152 75.6294 187.237 75.7147 187.365 75.7574L188.816 76.3547C189.2 76.4827 189.2 77.0374 188.816 77.1654L187.365 77.7627C187.237 77.8054 187.152 77.8907 187.109 78.0187L186.512 79.4694C186.384 79.8534 185.829 79.8534 185.701 79.4694L185.104 78.0187C185.061 77.8907 184.976 77.8054 184.848 77.7627L183.397 77.1654C183.013 77.0374 183.013 76.4827 183.397 76.3547L184.848 75.7574C184.976 75.7147 185.061 75.6294 185.104 75.5014L185.701 74.0507C185.829 73.6667 186.384 73.6667 186.512 74.0507Z" fill="url(#paint38_radial_1292_6465)"/>
<path d="M194.321 70.0402L194.918 71.4908C194.961 71.6188 195.046 71.7042 195.174 71.7468L196.625 72.3442C197.009 72.4722 197.009 73.0268 196.625 73.1548L195.174 73.7522C195.046 73.7948 194.961 73.8802 194.918 74.0082L194.321 75.4588C194.193 75.8428 193.638 75.8428 193.51 75.4588L192.913 74.0082C192.87 73.8802 192.785 73.7948 192.657 73.7522L191.206 73.1548C190.822 73.0268 190.822 72.4722 191.206 72.3442L192.657 71.7468C192.785 71.7042 192.87 71.6188 192.913 71.4908L193.51 70.0402C193.681 69.6988 194.193 69.6988 194.321 70.0402Z" fill="url(#paint39_radial_1292_6465)"/>
<path d="M186.512 66.0722L187.109 67.5229C187.152 67.6509 187.237 67.7362 187.365 67.7788L188.816 68.3762C189.2 68.5042 189.2 69.0588 188.816 69.1868L187.365 69.7842C187.237 69.8268 187.152 69.9122 187.109 70.0402L186.512 71.4908C186.384 71.8748 185.829 71.8748 185.701 71.4908L185.104 70.0402C185.061 69.9122 184.976 69.8268 184.848 69.7842L183.397 69.1868C183.013 69.0588 183.013 68.5042 183.397 68.3762L184.848 67.7788C184.976 67.7362 185.061 67.6509 185.104 67.5229L185.701 66.0722C185.829 65.6882 186.384 65.6882 186.512 66.0722Z" fill="url(#paint40_radial_1292_6465)"/>
<path d="M215.227 82.1149L215.824 83.5656C215.867 83.6936 215.952 83.7789 216.08 83.8216L217.531 84.4189C217.915 84.5469 217.915 85.1016 217.531 85.2296L216.08 85.8269C215.952 85.8696 215.867 85.9549 215.824 86.0829L215.227 87.5336C215.099 87.9176 214.544 87.9176 214.416 87.5336L213.819 86.0829C213.776 85.9549 213.691 85.8696 213.563 85.8269L212.112 85.2296C211.728 85.1016 211.728 84.5469 212.112 84.4189L213.563 83.8216C213.691 83.7789 213.776 83.6936 213.819 83.5656L214.416 82.1149C214.587 81.7736 215.099 81.7736 215.227 82.1149Z" fill="url(#paint41_radial_1292_6465)"/>
<path d="M223.078 78.1469L223.676 79.5976C223.718 79.7256 223.804 79.8109 223.932 79.8536L225.382 80.4509C225.766 80.5789 225.766 81.1336 225.382 81.2616L223.932 81.8589C223.804 81.9016 223.718 81.9869 223.676 82.1149L223.078 83.5656C222.95 83.9496 222.396 83.9496 222.268 83.5656L221.67 82.1149C221.628 81.9869 221.542 81.9016 221.414 81.8589L219.964 81.2616C219.58 81.1336 219.58 80.5789 219.964 80.4509L221.414 79.8536C221.542 79.8109 221.628 79.7256 221.67 79.5976L222.268 78.1469C222.396 77.7629 222.908 77.7629 223.078 78.1469Z" fill="url(#paint42_radial_1292_6465)"/>
<path d="M215.227 74.0507L215.824 75.5014C215.867 75.6294 215.952 75.7147 216.08 75.7574L217.531 76.3547C217.915 76.4827 217.915 77.0374 217.531 77.1654L216.08 77.7627C215.952 77.8054 215.867 77.8907 215.824 78.0187L215.227 79.4694C215.099 79.8534 214.544 79.8534 214.416 79.4694L213.819 78.0187C213.776 77.8907 213.691 77.8054 213.563 77.7627L212.112 77.1654C211.728 77.0374 211.728 76.4827 212.112 76.3547L213.563 75.7574C213.691 75.7147 213.776 75.6294 213.819 75.5014L214.416 74.0507C214.587 73.6667 215.099 73.6667 215.227 74.0507Z" fill="url(#paint43_radial_1292_6465)"/>
<path d="M223.078 70.0402L223.676 71.4908C223.718 71.6188 223.804 71.7042 223.932 71.7468L225.382 72.3442C225.766 72.4722 225.766 73.0268 225.382 73.1548L223.932 73.7522C223.804 73.7948 223.718 73.8802 223.676 74.0082L223.078 75.4588C222.95 75.8428 222.396 75.8428 222.268 75.4588L221.67 74.0082C221.628 73.8802 221.542 73.7948 221.414 73.7522L219.964 73.1548C219.58 73.0268 219.58 72.4722 219.964 72.3442L221.414 71.7468C221.542 71.7042 221.628 71.6188 221.67 71.4908L222.268 70.0402C222.396 69.6988 222.908 69.6988 223.078 70.0402Z" fill="url(#paint44_radial_1292_6465)"/>
<path d="M215.227 66.0722L215.824 67.5229C215.867 67.6509 215.952 67.7362 216.08 67.7788L217.531 68.3762C217.915 68.5042 217.915 69.0588 217.531 69.1868L216.08 69.7842C215.952 69.8268 215.867 69.9122 215.824 70.0402L215.227 71.4908C215.099 71.8748 214.544 71.8748 214.416 71.4908L213.819 70.0402C213.776 69.9122 213.691 69.8268 213.563 69.7842L212.112 69.1868C211.728 69.0588 211.728 68.5042 212.112 68.3762L213.563 67.7788C213.691 67.7362 213.776 67.6509 213.819 67.5229L214.416 66.0722C214.587 65.6882 215.099 65.6882 215.227 66.0722Z" fill="url(#paint45_radial_1292_6465)"/>
<path d="M195.769 196.333H123.918V168.429C123.918 148.589 140.003 132.504 159.843 132.504C179.683 132.504 195.769 148.589 195.769 168.429V196.333Z" fill="url(#paint46_linear_1292_6465)"/>
<mask id="mask11_1292_6465" style="mask-type:luminance" maskUnits="userSpaceOnUse" x="0" y="-17" width="321" height="214">
<path d="M320.016 -17H0.101562V196.333H320.016V-17Z" fill="white"/>
</mask>
<g mask="url(#mask11_1292_6465)">
<path d="M10.8936 196.333H-60.957V36.9732C-60.957 17.1332 -44.8717 1.04785 -25.0317 1.04785C-5.1917 1.04785 10.8936 17.1332 10.8936 36.9732V196.333Z" fill="url(#paint47_linear_1292_6465)"/>
</g>
<mask id="mask12_1292_6465" style="mask-type:luminance" maskUnits="userSpaceOnUse" x="0" y="-17" width="321" height="214">
<path d="M320.016 -17H0.101562V196.333H320.016V-17Z" fill="white"/>
</mask>
<g mask="url(#mask12_1292_6465)">
<path d="M72.0808 372.973H0.1875V213.613C0.1875 193.773 16.2728 177.688 36.1128 177.688C55.9528 177.688 72.0382 193.773 72.0382 213.613V372.973H72.0808Z" fill="url(#paint48_linear_1292_6465)"/>
</g>
<mask id="mask13_1292_6465" style="mask-type:luminance" maskUnits="userSpaceOnUse" x="0" y="-17" width="321" height="214">
<path d="M320.016 -17H0.101562V196.333H320.016V-17Z" fill="white"/>
</mask>
<g mask="url(#mask13_1292_6465)">
<path d="M221.5 197.656V298.136H176.188V197.656C176.188 185.155 186.342 175 198.844 175C205.116 175 210.748 177.517 214.844 181.613C218.982 185.752 221.5 191.384 221.5 197.656Z" fill="url(#paint49_linear_1292_6465)"/>
</g>
<path d="M53.6842 133.484C55.7588 133.718 57.7454 134.268 59.6348 135.154C61.8372 136.189 63.7464 137.615 65.3071 139.486C67.4641 142.071 68.6909 145.047 68.9675 148.399C69.3083 152.47 68.2741 156.228 66.2202 159.726C64.6512 162.399 62.5976 164.643 60.1156 166.492C56.3854 169.267 52.2207 170.915 47.574 171.307C46.7439 171.376 45.9129 171.397 45.0829 171.362C44.9273 171.355 44.8446 171.408 44.7639 171.53C43.7356 173.118 42.697 174.707 41.6687 176.294C41.5961 176.412 41.5488 176.461 41.4108 176.362C41.0039 176.078 40.5871 175.806 40.1629 175.548C39.9953 175.445 40.0142 175.375 40.1064 175.235C40.963 173.93 41.8131 172.624 42.6633 171.317C42.6921 171.273 42.7122 171.224 42.7502 171.159C42.1212 171.052 41.5091 170.946 40.9066 170.791C40.8555 170.778 40.8003 170.766 40.7451 170.755C40.2681 170.631 40.2681 170.631 39.9914 171.05C39.0375 172.514 38.0812 173.973 37.1401 175.44C37.0404 175.595 36.9835 175.59 36.8438 175.498C36.4567 175.23 36.0574 174.969 35.653 174.727C35.4854 174.624 35.4584 174.558 35.5777 174.381C36.496 172.987 37.3991 171.585 38.311 170.188C38.4032 170.049 38.4186 169.991 38.2361 169.918C35.7501 168.906 33.6078 167.404 31.8403 165.372C31.7482 165.269 31.6641 165.16 31.5603 165.037C31.405 165.488 31.2653 165.92 31.1088 166.351C30.6707 167.538 30.1611 168.686 29.335 169.66C28.7242 170.38 28 170.923 27.009 170.965C26.5031 170.987 26.0169 170.884 25.5724 170.639C25.089 170.372 24.8567 169.961 24.9013 169.411C24.9552 168.737 25.273 168.164 25.6257 167.615C26.462 166.322 27.5237 165.222 28.6234 164.161C28.9007 163.893 29.1804 163.628 29.4508 163.348C28.7332 163.546 28.0191 163.732 27.2907 163.855C26.3049 164.019 25.3187 164.108 24.3222 163.954C23.6747 163.852 23.0697 163.656 22.5858 163.173C21.8922 162.477 21.9495 160.883 22.6704 160.391C23.0349 160.142 23.4406 160.022 23.8698 159.979C24.7863 159.882 25.6836 160.023 26.5769 160.204C27.4215 160.376 28.2513 160.615 29.1125 160.891C29.0038 160.581 28.905 160.297 28.8127 160.016C27.8096 156.959 27.7413 153.865 28.4726 150.752C29.4672 146.58 31.6157 143.087 34.6742 140.121C36.2431 138.6 38.0017 137.341 39.9086 136.284C40.1726 136.806 40.5702 137.214 40.9962 137.606C39.1772 138.591 37.4913 139.77 35.9859 141.196C33.983 143.098 32.3788 145.288 31.2433 147.813C31.1692 147.974 31.2124 148.03 31.3555 148.11C31.8907 148.401 32.4402 148.651 33.0122 148.855C34.57 149.42 36.1899 149.727 37.8087 150.051C39.5356 150.394 41.2595 150.723 42.927 151.3C44.5132 151.848 45.9778 152.607 47.1977 153.793C47.7165 154.299 48.1555 154.872 48.5545 155.479C48.5319 155.487 48.5117 155.498 48.4891 155.506C48.4505 155.458 48.4161 155.408 48.3776 155.36C47.4752 154.33 46.36 153.596 45.1197 153.048C43.4788 152.321 41.739 151.937 39.9827 151.627C38.1184 151.299 36.239 151.104 34.383 150.706C33.4083 150.496 32.4456 150.241 31.578 149.721C31.3737 149.601 31.1827 149.458 30.9662 149.307C31.0532 149.813 31.2304 150.251 31.4835 150.662C32.0803 151.63 32.9503 152.295 33.93 152.831C35.5164 153.698 37.241 154.177 39.0026 154.505C39.505 154.599 40.0206 154.669 40.5752 154.759C40.4889 154.787 40.4518 154.798 40.4188 154.806C39.1325 155.133 37.8258 155.19 36.5107 155.036C35.3958 154.902 34.3302 154.61 33.3068 154.147C33.2486 154.121 33.1284 153.969 33.0974 154.187C33.0242 154.678 33.0912 155.131 33.4208 155.524C33.7143 155.873 34.1023 156.087 34.5203 156.24C35.4294 156.579 36.3804 156.673 37.3404 156.708C39.2541 156.775 41.1544 156.586 43.0444 156.294C43.1297 156.283 43.2131 156.24 43.3166 156.288C42.209 156.868 41.06 157.283 39.8588 157.561C38.6512 157.836 37.4348 157.966 36.1766 157.817C36.6512 158.705 37.2458 159.426 38.1431 159.848C39.0468 160.271 39.9894 160.294 40.9509 160.145C42.0765 159.97 43.1281 159.574 44.1543 159.105C44.4868 158.951 44.8186 158.787 45.1487 158.629C44.8741 158.874 44.5778 159.072 44.2752 159.268C43.1572 159.989 41.9952 160.606 40.6985 160.933C39.1809 161.318 37.7641 161.147 36.5338 160.101C35.7893 159.467 35.2507 158.665 34.8394 157.784C34.7093 157.503 34.5586 157.298 34.2258 157.236C34.0074 157.195 33.8038 157.085 33.6026 156.98C32.936 156.63 32.4121 156.144 32.132 155.425C31.8937 154.806 31.881 154.176 32.0529 153.547C32.122 153.302 32.0987 153.159 31.8873 152.989C31.4343 152.635 31.062 152.196 30.7355 151.715C30.5468 151.435 30.4067 151.127 30.2202 150.813C30.0947 151.307 29.9906 151.772 29.9201 152.24C29.1744 157.068 30.3408 161.343 33.7448 164.937C34.4923 165.726 35.3224 166.425 36.2737 166.978C36.303 167.047 36.3756 167.07 36.4344 167.107C37.8312 167.991 39.3388 168.628 40.9326 169.058C43.3421 169.704 45.7929 169.85 48.2649 169.547C52.2914 169.054 55.9112 167.547 59.1525 165.114C61.3551 163.464 63.1893 161.476 64.6204 159.126C66.3107 156.346 67.2857 153.346 67.3471 150.075C67.352 149.737 67.3754 149.394 67.3049 149.057C67.3055 148.927 67.3142 148.792 67.3002 148.665C67.0181 145.257 65.727 142.291 63.3472 139.834C60.7236 137.124 57.4564 135.704 53.7574 135.192C53.7357 134.621 53.71 134.053 53.6842 133.484ZM24.7451 161.71C24.8215 161.656 24.9002 161.605 24.9678 161.544C25.1233 161.411 25.2799 161.261 25.218 161.032C25.156 160.803 24.9526 160.732 24.7476 160.704C24.1095 160.619 23.5286 160.754 23.0319 161.176C22.8903 161.296 22.7755 161.443 22.8315 161.643C22.8852 161.839 23.0532 161.915 23.2339 161.956C23.7735 162.077 24.2686 161.942 24.7451 161.71ZM26.4878 169.51C26.9894 169.172 27.3484 168.727 27.4653 168.125C27.4987 167.949 27.5043 167.762 27.329 167.636C27.1625 167.516 26.9805 167.557 26.8201 167.644C26.2388 167.947 25.8632 168.429 25.7064 169.065C25.6591 169.254 25.6443 169.463 25.8307 169.598C26.0146 169.73 26.2012 169.66 26.3824 169.571C26.4189 169.55 26.4513 169.532 26.4878 169.51Z" fill="#020202"/>
<path d="M53.6849 133.484C53.7106 134.053 53.7364 134.621 53.7621 135.19C53.7471 135.987 53.7425 136.784 53.7171 137.582C53.6845 138.471 53.6519 139.36 53.5374 140.247C53.502 140.251 53.4609 140.264 53.4249 140.258C52.5573 140.121 51.6959 139.949 50.8447 139.738C49.5021 139.405 48.1749 139.016 46.8808 138.515C45.6618 138.041 44.4778 137.487 43.4146 136.712C42.7701 136.242 42.1909 135.706 41.8892 134.941C41.6967 134.457 41.6887 133.976 41.8647 133.485C41.965 133.2 42.1496 132.959 42.265 132.681C43.1276 132.594 43.9209 132.855 44.6919 133.198C45.1699 133.408 45.6058 133.686 46.0573 133.944C46.6808 134.378 47.2806 134.837 47.8729 135.311C48.6373 135.999 49.3896 136.693 50.0969 137.441C49.8137 136.67 49.6031 135.884 49.3657 135.108C49.2507 134.553 49.1316 134.001 49.0142 133.442C49.0112 133.427 49.021 133.416 49.0309 133.405C49.0337 133.382 49.0405 133.356 49.0433 133.333L49.0271 133.342L49.0177 133.326C49.1431 133.319 49.1263 133.215 49.1533 133.14C49.2461 132.87 49.3214 132.589 49.427 132.323C49.8826 131.147 50.4766 130.042 51.0595 128.928C51.1458 128.759 51.2728 128.605 51.2835 128.398C52.037 128.45 52.4645 128.938 52.7777 129.545C53.3713 130.705 53.5226 131.968 53.6472 133.241C53.658 133.316 53.6735 133.399 53.6849 133.484Z" fill="#EB1C24"/>
<path d="M42.27 132.675C42.1546 132.952 41.97 133.194 41.8697 133.479C41.6937 133.969 41.7017 134.451 41.8942 134.934C42.1982 135.704 42.7774 136.239 43.4196 136.706C44.4828 137.481 45.6644 138.03 46.8858 138.508C48.1799 139.009 49.5031 139.401 50.8497 139.731C51.7009 139.942 52.564 140.109 53.4299 140.251C53.4659 140.258 53.507 140.245 53.5424 140.241C53.5415 140.679 53.4651 141.117 53.4305 141.553C53.4205 141.667 53.366 141.666 53.2777 141.663C53.0357 141.646 52.7878 141.638 52.5417 141.623C52.52 141.576 52.4829 141.587 52.4441 141.604C52.4237 141.578 52.3988 141.582 52.3768 141.6C52.3342 141.554 52.2762 141.566 52.2234 141.559C50.7851 141.379 49.3689 141.078 47.9699 140.713C47.1181 140.492 46.2882 140.215 45.4542 139.94C45.4263 139.929 45.3971 139.897 45.3636 139.933L45.3717 139.928C45.3517 139.875 45.2972 139.874 45.2565 139.86C43.7405 139.292 42.2733 138.632 40.9921 137.611C40.5661 137.219 40.1685 136.811 39.9044 136.288C39.3922 135.158 39.854 134.227 40.5947 133.469C41.0592 133.001 41.6151 132.729 42.27 132.675Z" fill="#990101"/>
<path d="M51.2845 128.388C51.2714 128.59 51.1468 128.749 51.0605 128.917C50.4776 130.032 49.8859 131.141 49.4281 132.313C49.3225 132.579 49.2471 132.86 49.1543 133.13C49.1274 133.205 49.1464 133.313 49.0187 133.316C48.8387 132.237 48.7677 131.16 49.0746 130.091C49.3843 128.999 50.2623 128.33 51.2845 128.388Z" fill="#9A0202"/>
<path d="M49.0195 133.429C49.1346 133.984 49.2537 134.536 49.3711 135.095C48.874 135.161 48.3664 135.189 47.8742 135.3C47.2818 134.827 46.678 134.37 46.0586 133.934C47.0313 133.691 48.0248 133.549 49.0195 133.429Z" fill="#020202"/>
<path d="M49.0457 133.321C49.0429 133.344 49.0361 133.369 49.0333 133.393C49.0297 133.368 48.9901 133.337 49.0457 133.321Z" fill="#9A0202"/>
<path d="M36.2749 166.978C36.4883 166.936 36.6866 167.027 36.8864 167.073C37.9687 167.329 39.0697 167.477 40.182 167.569C40.5379 167.596 40.7944 167.47 41.0249 167.223C41.1589 167.081 41.2731 166.923 41.4339 166.809C41.8116 166.537 42.2216 166.592 42.6236 166.689C43.2127 166.83 43.7973 167 44.3853 167.158C44.5811 167.207 44.7745 167.252 44.9778 167.286C45.6579 167.406 46.214 167.172 46.6936 166.711C46.9692 166.449 47.2228 166.168 47.5252 165.934C48.114 165.475 48.7904 165.43 49.4994 165.507C50.1473 165.581 50.7938 165.7 51.4486 165.608C52.0158 165.524 52.4527 165.261 52.6463 164.679C52.7528 164.358 52.9805 164.135 53.2692 163.952C53.9319 163.537 54.6914 163.374 55.4145 163.129C56.1273 162.885 56.8606 162.705 57.5193 162.33C57.8458 162.147 57.9821 161.868 57.9655 161.521C57.931 160.807 58.141 160.534 58.905 160.201C59.5097 159.938 60.1197 159.694 60.729 159.44C61.2179 159.238 61.5685 158.863 61.9144 158.48C63.2612 156.994 64.4454 155.387 65.4068 153.627C66.1735 152.223 66.7769 150.751 67.2192 149.215C67.2346 149.157 67.239 149.09 67.3085 149.061C67.379 149.398 67.3556 149.741 67.3507 150.079C67.2893 153.351 66.3143 156.35 64.624 159.13C63.1929 161.48 61.3563 163.464 59.1561 165.118C55.9148 167.551 52.295 169.058 48.2685 169.551C45.7965 169.855 43.3457 169.708 40.9361 169.063C39.3424 168.632 37.8347 167.995 36.438 167.111C36.3746 167.066 36.3042 167.047 36.2749 166.978Z" fill="#BABCBE"/>
<path d="M24.7433 161.711C24.2644 161.939 23.7718 162.077 23.2361 161.954C23.0555 161.913 22.8874 161.837 22.8337 161.641C22.7801 161.445 22.8949 161.298 23.0342 161.174C23.5308 160.752 24.1158 160.614 24.7499 160.702C24.9549 160.73 25.1583 160.801 25.2202 161.03C25.2822 161.259 25.1256 161.409 24.9701 161.542C24.8984 161.605 24.8197 161.656 24.7433 161.711Z" fill="#FBFBFB"/>
<path d="M26.489 169.511C26.4566 169.529 26.4201 169.551 26.3877 169.569C26.2064 169.658 26.0199 169.728 25.8359 169.596C25.6496 169.461 25.6644 169.252 25.7117 169.063C25.8684 168.427 26.2464 167.949 26.8254 167.642C26.9881 167.559 27.1678 167.514 27.3343 167.634C27.5032 167.758 27.504 167.947 27.4705 168.123C27.3456 168.73 26.9906 169.173 26.489 169.511Z" fill="#FBFBFB"/>
<path d="M48.5485 155.478C48.6288 155.523 48.6524 155.601 48.6923 155.708C48.5824 155.658 48.5119 155.601 48.483 155.505C48.4993 155.495 48.5219 155.488 48.5485 155.478Z" fill="#BABCBE"/>
<path d="M47.875 135.298C48.3672 135.187 48.8708 135.161 49.3719 135.093C49.6052 135.871 49.8199 136.655 50.1031 137.426C49.3918 136.68 48.6354 135.988 47.875 135.298Z" fill="#FDFAFA"/>
<path d="M52.3789 141.602C52.1303 141.686 51.8748 141.655 51.6218 141.666C50.354 141.706 49.0959 141.838 47.8377 141.971C46.2524 142.135 44.6724 142.318 43.0888 142.476C41.9658 142.589 40.8415 142.682 39.717 142.596C39.4221 142.572 39.1289 142.542 38.8573 142.417C38.5061 142.258 38.3969 141.975 38.5927 141.641C38.9372 141.058 39.4431 140.653 40.0495 140.384C41.644 139.674 43.3109 139.716 44.9954 139.911C45.1219 139.924 45.2516 139.99 45.3819 139.925L45.3738 139.93C45.4034 139.935 45.4307 139.935 45.4644 139.937C46.2984 140.212 47.1283 140.489 47.9801 140.711C49.3815 141.079 50.7977 141.38 52.2336 141.556C52.276 141.564 52.3363 141.556 52.3789 141.602Z" fill="#BBBCBE"/>
<path d="M52.539 141.627C52.5042 141.642 52.4671 141.652 52.4414 141.608C52.4779 141.587 52.515 141.576 52.539 141.627Z" fill="#BBBCBE"/>
<path d="M45.4554 139.937C45.4258 139.933 45.3985 139.932 45.3648 139.93C45.4024 139.892 45.4251 139.922 45.4554 139.937Z" fill="#FEFEFE"/>
<path d="M52.4468 141.606C52.4231 141.63 52.3999 141.628 52.3795 141.602C52.4014 141.583 52.4223 141.582 52.4468 141.606Z" fill="#BBBCBE"/>
<path d="M54.9633 151.223C54.3307 150.567 53.8538 149.816 53.5916 148.941C53.5802 148.855 53.5712 148.774 53.5557 148.691C53.472 148.275 53.4533 147.859 53.5438 147.445C53.7133 146.672 54.3475 146.273 55.1156 146.462C55.3433 146.519 55.5585 146.611 55.7586 146.733C56.6694 147.31 57.2477 148.143 57.6113 149.138C57.8169 149.7 57.9083 150.279 57.7931 150.875C57.6178 151.759 56.9232 152.166 56.0717 151.88C55.9113 151.826 55.7577 151.747 55.6042 151.669C55.3652 151.563 55.1856 151.365 54.9633 151.223ZM56.2457 148.073C56.0773 147.781 55.8761 147.573 55.654 147.469C55.2719 147.285 54.9616 147.458 54.9217 147.876C54.8671 148.399 55.2712 149.089 55.7538 149.308C56.1242 149.472 56.4241 149.299 56.4646 148.892C56.4865 148.593 56.3948 148.322 56.2457 148.073Z" fill="#020202"/>
<path d="M61.1978 155.527C61.1232 154.808 61.0541 154.146 60.989 153.481C60.8924 152.5 60.7957 151.518 60.6927 150.535C60.6788 150.408 60.6791 150.343 60.8421 150.335C62.5026 150.235 64.1665 150.123 65.8246 150.019C65.8704 150.014 65.9169 150.02 66.0132 150.018C64.4046 151.855 62.8237 153.664 61.1978 155.527Z" fill="#F9AF41"/>
<path d="M60.0857 147.568C60.0676 147.546 60.0472 147.52 60.0291 147.498C60.0185 147.461 59.9957 147.43 59.9516 147.429C59.3857 146.767 59.0052 146.014 58.8487 145.154C58.8612 144.839 58.8296 144.522 58.9199 144.21C59.1104 143.576 59.6267 143.273 60.2709 143.425C60.5155 143.484 60.7377 143.588 60.9472 143.726C61.6305 144.18 62.082 144.821 62.401 145.561C62.6256 146.09 62.7488 146.641 62.666 147.218C62.6198 147.531 62.5138 147.824 62.2623 148.034C61.8715 148.368 61.4372 148.327 60.989 148.159C60.6437 148.029 60.3751 147.779 60.0857 147.568ZM60.524 145.267C60.6306 145.47 60.7874 145.639 61.0072 145.739C61.2829 145.861 61.5104 145.74 61.5555 145.444C61.6261 145.014 61.2641 144.397 60.8613 144.251C60.5997 144.154 60.3931 144.273 60.3467 144.548C60.3079 144.808 60.389 145.042 60.524 145.267Z" fill="#020202"/>
<path d="M54.9592 151.223C55.1816 151.365 55.3629 151.557 55.5985 151.675C55.7497 151.75 55.9032 151.829 56.066 151.886C56.9174 152.172 57.612 151.766 57.7874 150.881C57.9066 150.283 57.8112 149.706 57.6056 149.144C57.2419 148.149 56.6654 147.31 55.7529 146.74C55.5568 146.615 55.3416 146.524 55.1098 146.468C54.3418 146.28 53.7052 146.674 53.538 147.451C53.4476 147.866 53.4663 148.282 53.55 148.698C53.5654 148.781 53.5745 148.862 53.5859 148.947C53.4253 148.856 53.4524 148.679 53.4106 148.541C53.1785 147.783 53.055 147.017 53.301 146.227C53.5751 145.345 54.3452 145.078 55.1333 145.358C56.097 145.698 56.7814 146.378 57.3722 147.177C58.018 148.052 58.4673 149.009 58.67 150.08C58.7788 150.671 58.7698 151.254 58.578 151.83C58.3718 152.446 57.7118 152.8 57.0449 152.655C56.3653 152.507 55.8227 152.129 55.3297 151.668C55.1922 151.542 55.0118 151.436 54.9592 151.223Z" fill="#CED0D1"/>
<path d="M60.0869 147.568C60.3786 147.783 60.649 148.027 60.9966 148.161C61.4407 148.331 61.875 148.372 62.2699 148.036C62.519 147.822 62.6274 147.533 62.6736 147.22C62.7564 146.643 62.6372 146.09 62.4086 145.563C62.0936 144.821 61.6381 144.182 60.9548 143.728C60.7453 143.59 60.5231 143.486 60.2785 143.427C59.6383 143.273 59.122 143.576 58.9275 144.212C58.8332 144.526 58.8624 144.839 58.8563 145.156C58.8435 145.152 58.8162 145.152 58.8156 145.141C58.6357 144.484 58.5706 143.819 58.8446 143.18C59.184 142.373 59.8774 142.227 60.654 142.524C61.4929 142.845 62.0899 143.467 62.6148 144.18C63.1233 144.864 63.454 145.624 63.644 146.449C63.7818 147.034 63.8152 147.625 63.6031 148.212C63.3078 149.02 62.5821 149.223 61.8615 148.985C61.1472 148.749 60.6122 148.253 60.1183 147.707C60.0797 147.659 60.0564 147.618 60.0869 147.568Z" fill="#CFD0D1"/>
<path d="M54.3238 154.665C54.8285 154.341 55.3936 154.188 56.0138 154.289C56.7421 154.409 57.1009 154.974 56.9004 155.684C56.5999 156.754 55.0331 157.681 53.9427 157.43C53.148 157.251 52.8304 156.57 53.1793 155.817C53.4024 155.343 53.7363 155.004 54.3238 154.665Z" fill="#EEB7C0"/>
<path d="M59.9539 147.429C59.998 147.43 60.0185 147.456 60.0314 147.497C59.9613 147.516 59.9253 147.51 59.9539 147.429Z" fill="#CFD0D1"/>
<path d="M56.2452 148.073C56.3926 148.328 56.486 148.593 56.4601 148.894C56.426 149.303 56.1221 149.478 55.7493 149.31C55.2667 149.092 54.869 148.403 54.9171 147.878C54.9571 147.461 55.2673 147.287 55.6494 147.471C55.8756 147.573 56.0768 147.781 56.2452 148.073Z" fill="#FBFBFB"/>
<path d="M60.5238 145.267C60.3824 145.041 60.3077 144.809 60.3489 144.552C60.3952 144.277 60.6042 144.162 60.8635 144.255C61.2663 144.401 61.6283 145.019 61.5576 145.448C61.5102 145.74 61.2809 145.867 61.0094 145.743C60.7936 145.641 60.6327 145.474 60.5238 145.267Z" fill="#FBFBFB"/>
<path d="M52.5413 141.628C52.7851 141.639 53.0312 141.653 53.2773 141.668C53.3615 141.673 53.4201 141.672 53.43 141.558C53.4623 141.118 53.537 140.686 53.542 140.245C53.6524 139.36 53.689 138.469 53.7216 137.581C53.7494 136.787 53.7517 135.986 53.7667 135.188C57.4657 135.7 60.7329 137.12 63.3565 139.83C65.7386 142.291 67.0274 145.253 67.3095 148.661C67.3194 148.79 67.3107 148.925 67.3142 149.053C67.2447 149.082 67.2403 149.149 67.2249 149.207C66.7826 150.743 66.1728 152.213 65.4125 153.619C64.4494 155.385 63.2669 156.986 61.9201 158.472C61.5742 158.855 61.2236 159.23 60.7347 159.432C60.1254 159.686 59.5154 159.93 58.9107 160.193C58.1507 160.524 57.9367 160.799 57.9712 161.513C57.9878 161.86 57.8556 162.137 57.525 162.322C56.8622 162.699 56.1289 162.88 55.4202 163.121C54.693 163.368 53.9399 163.533 53.2749 163.944C52.9838 164.123 52.7585 164.35 52.652 164.671C52.4561 165.249 52.0215 165.516 51.4543 165.6C50.7978 165.698 50.153 165.573 49.5051 165.499C48.7938 165.418 48.1237 165.465 47.5309 165.926C47.2285 166.16 46.9749 166.441 46.6993 166.703C46.2156 167.166 45.6636 167.398 44.9835 167.278C44.7843 167.241 44.5868 167.199 44.391 167.15C43.803 166.992 43.2225 166.819 42.6293 166.681C42.2273 166.584 41.815 166.524 41.4396 166.801C41.2788 166.915 41.1646 167.073 41.0306 167.215C40.8001 167.462 40.5436 167.588 40.1877 167.561C39.0754 167.469 37.9808 167.323 36.8921 167.065C36.6923 167.019 36.494 166.928 36.2806 166.97C35.3357 166.419 34.5016 165.723 33.7517 164.929C30.342 161.344 29.1756 157.069 29.9096 152.22C29.9801 151.753 30.0802 151.29 30.2097 150.793C30.3986 151.111 30.5363 151.415 30.725 151.695C31.0475 152.179 31.4237 152.616 31.8768 152.97C32.0923 153.137 32.1115 153.283 32.0424 153.528C31.8664 154.159 31.8791 154.789 32.1215 155.406C32.4016 156.125 32.9254 156.611 33.5921 156.961C33.7933 157.066 33.9969 157.175 34.2153 157.217C34.5481 157.279 34.6947 157.486 34.8288 157.765C35.2402 158.646 35.7765 159.443 36.5233 160.082C37.7519 161.134 39.1663 161.301 40.688 160.914C41.9847 160.586 43.1507 159.967 44.2647 159.248C44.5673 159.052 44.8636 158.854 45.1381 158.609C44.8081 158.767 44.4763 158.932 44.1438 159.086C43.1159 159.561 42.062 159.953 40.9404 160.125C39.9789 160.275 39.0323 160.254 38.1326 159.828C37.2352 159.406 36.6407 158.685 36.1661 157.798C37.4243 157.946 38.6407 157.817 39.8483 157.541C41.0495 157.263 42.2025 156.846 43.3061 156.269C43.2066 156.218 43.1168 156.259 43.0339 156.274C41.1439 156.566 39.2476 156.753 37.3299 156.688C36.3699 156.654 35.4189 156.56 34.5098 156.22C34.0895 156.063 33.7078 155.851 33.4103 155.504C33.0807 155.111 33.0137 154.658 33.0869 154.167C33.1219 153.947 33.2381 154.102 33.2962 154.128C34.3197 154.59 35.3877 154.887 36.5002 155.017C37.8176 155.175 39.1179 155.116 40.4082 154.787C40.4453 154.776 40.4824 154.765 40.5647 154.739C40.0061 154.651 39.4968 154.583 38.9921 154.486C37.2241 154.156 35.5059 153.679 33.9195 152.812C32.9398 152.275 32.0681 151.617 31.473 150.642C31.2199 150.232 31.0427 149.794 30.9557 149.288C31.1763 149.436 31.3632 149.582 31.5675 149.702C32.4351 150.222 33.3978 150.476 34.3725 150.686C36.2221 151.082 38.1079 151.279 39.9722 151.608C41.7285 151.917 43.4683 152.301 45.1092 153.029C46.3519 153.581 47.4688 154.308 48.3671 155.34C48.4096 155.386 48.4441 155.436 48.4786 155.487C48.5074 155.583 48.5779 155.64 48.6878 155.69C48.6543 155.585 48.6284 155.503 48.544 155.46C48.1473 154.857 47.7083 154.283 47.1872 153.774C45.9714 152.585 44.5027 151.828 42.9165 151.28C41.249 150.703 39.521 150.377 37.7982 150.032C36.1817 149.712 34.5595 149.4 33.0017 148.836C32.4297 148.631 31.8802 148.381 31.345 148.09C31.2042 148.015 31.161 147.959 31.2328 147.793C32.3747 145.27 33.9725 143.078 35.9754 141.176C37.4808 139.75 39.1667 138.572 40.9857 137.586C42.2629 138.61 43.7341 139.268 45.2501 139.835C45.2908 139.85 45.3454 139.851 45.3653 139.904C45.235 139.968 45.1053 139.903 44.9788 139.889C43.2944 139.695 41.6275 139.652 40.033 140.362C39.4266 140.631 38.9142 141.035 38.5761 141.619C38.3803 141.954 38.4895 142.237 38.8407 142.396C39.1163 142.518 39.4078 142.555 39.7004 142.575C40.829 142.658 41.9532 142.565 43.0722 142.454C44.6558 142.296 46.2399 142.111 47.8211 141.949C49.0816 141.821 50.3415 141.683 51.6093 141.642C51.8623 141.631 52.1178 141.662 52.3664 141.578C52.3868 141.604 52.41 141.607 52.4337 141.582C52.4694 141.653 52.5065 141.643 52.5413 141.628ZM59.9536 147.43C59.9249 147.511 59.9633 147.521 60.0311 147.498C60.0491 147.52 60.0696 147.546 60.0877 147.568C60.0571 147.618 60.0829 147.663 60.112 147.695C60.606 148.242 61.145 148.735 61.8552 148.974C62.5782 149.215 63.3016 149.008 63.5968 148.2C63.8113 147.617 63.7779 147.026 63.6377 146.437C63.4437 145.615 63.113 144.855 62.6086 144.168C62.0837 143.455 61.4866 142.833 60.6478 142.512C59.8711 142.215 59.1801 142.366 58.8383 143.168C58.5667 143.811 58.6318 144.476 58.8094 145.13C58.814 145.138 58.8373 145.141 58.85 145.144C59.0071 146.015 59.3894 146.761 59.9536 147.43ZM54.9639 151.224C55.0142 151.432 55.1986 151.536 55.3344 151.669C55.8274 152.13 56.3659 152.51 57.0496 152.656C57.7165 152.8 58.3806 152.444 58.5827 151.83C58.7745 151.255 58.7835 150.671 58.6747 150.081C58.4761 149.007 58.0244 148.047 57.3769 147.178C56.7861 146.379 56.0953 145.697 55.138 145.359C54.3499 145.079 53.5798 145.345 53.3057 146.227C53.0638 147.015 53.185 147.777 53.4153 148.541C53.4571 148.679 53.4341 148.854 53.5906 148.948C53.8568 149.821 54.3337 150.572 54.9639 151.224ZM61.1985 155.528C62.8203 153.668 64.4053 151.856 66.0116 150.015C65.9152 150.017 65.8711 150.015 65.823 150.016C64.1608 150.122 62.5009 150.232 60.8405 150.332C60.6798 150.344 60.6771 150.405 60.6911 150.532C60.7941 151.515 60.8907 152.497 60.9874 153.478C61.0588 154.144 61.1279 154.807 61.1985 155.528ZM54.3258 154.666C53.7383 155.005 53.4044 155.344 53.1836 155.822C52.8307 156.577 53.1523 157.256 53.947 157.435C55.0351 157.682 56.5978 156.758 56.9047 155.689C57.1053 154.979 56.7464 154.414 56.0181 154.294C55.3932 154.185 54.8304 154.342 54.3258 154.666Z" fill="#FEFEFE"/>
<path d="M25.3906 46V30H35.9844V32.7891H28.7734V36.6016H35.2813V39.3906H28.7734V46H25.3906ZM41.5254 30V46H38.1973V30H41.5254ZM47.6133 46.2266C46.8477 46.2266 46.1654 46.0938 45.5664 45.8281C44.9674 45.5573 44.4935 45.1589 44.1445 44.6328C43.8008 44.1016 43.6289 43.4401 43.6289 42.6484C43.6289 41.9818 43.7513 41.4219 43.9961 40.9687C44.2409 40.5156 44.5742 40.151 44.9961 39.875C45.418 39.599 45.8971 39.3906 46.4336 39.25C46.9753 39.1094 47.543 39.0104 48.1367 38.9531C48.8346 38.8802 49.3971 38.8125 49.8242 38.75C50.2513 38.6823 50.5612 38.5833 50.7539 38.4531C50.9466 38.3229 51.043 38.1302 51.043 37.875V37.8281C51.043 37.3333 50.8867 36.9505 50.5742 36.6797C50.2669 36.4089 49.8294 36.2734 49.2617 36.2734C48.6628 36.2734 48.1862 36.4062 47.832 36.6719C47.4779 36.9323 47.2435 37.2604 47.1289 37.6562L44.0508 37.4062C44.207 36.6771 44.5143 36.0469 44.9727 35.5156C45.431 34.9792 46.0221 34.5677 46.7461 34.2812C47.4753 33.9896 48.319 33.8438 49.2773 33.8438C49.944 33.8438 50.582 33.9219 51.1914 34.0781C51.806 34.2344 52.3503 34.4766 52.8242 34.8047C53.3034 35.1328 53.681 35.5547 53.957 36.0703C54.2331 36.5807 54.3711 37.1927 54.3711 37.9062V46H51.2148V44.3359H51.1211C50.9284 44.7109 50.6706 45.0417 50.3477 45.3281C50.0247 45.6094 49.6367 45.8307 49.1836 45.9922C48.7305 46.1484 48.207 46.2266 47.6133 46.2266ZM48.5664 43.9297C49.056 43.9297 49.4883 43.8333 49.8633 43.6406C50.2383 43.4427 50.5326 43.1771 50.7461 42.8438C50.9596 42.5104 51.0664 42.1328 51.0664 41.7109V40.4375C50.9622 40.5052 50.819 40.5677 50.6367 40.625C50.4596 40.6771 50.2591 40.7266 50.0352 40.7734C49.8112 40.8151 49.5872 40.8542 49.3633 40.8906C49.1393 40.9219 48.9362 40.9505 48.7539 40.9766C48.3633 41.0339 48.0221 41.125 47.7305 41.25C47.4388 41.375 47.2122 41.5443 47.0508 41.7578C46.8893 41.9661 46.8086 42.2266 46.8086 42.5391C46.8086 42.9922 46.9727 43.3385 47.3008 43.5781C47.6341 43.8125 48.056 43.9297 48.5664 43.9297ZM56.9531 50.5V34H60.2344V36.0156H60.3828C60.5286 35.6927 60.7396 35.3646 61.0156 35.0312C61.2969 34.6927 61.6615 34.4115 62.1094 34.1875C62.5625 33.9583 63.125 33.8438 63.7969 33.8438C64.6719 33.8438 65.4792 34.0729 66.2188 34.5313C66.9583 34.9844 67.5495 35.6693 67.9922 36.5859C68.4349 37.4974 68.6563 38.6406 68.6563 40.0156C68.6563 41.3542 68.4401 42.4844 68.0078 43.4062C67.5807 44.3229 66.9974 45.0182 66.2578 45.4922C65.5234 45.9609 64.7005 46.1953 63.7891 46.1953C63.1432 46.1953 62.5938 46.0885 62.1406 45.875C61.6927 45.6615 61.3255 45.3932 61.0391 45.0703C60.7526 44.7422 60.5339 44.4115 60.3828 44.0781H60.2813V50.5H56.9531ZM60.2109 40C60.2109 40.7135 60.3099 41.3359 60.5078 41.8672C60.7057 42.3984 60.9922 42.8125 61.3672 43.1094C61.7422 43.401 62.1979 43.5469 62.7344 43.5469C63.276 43.5469 63.7344 43.3984 64.1094 43.1016C64.4844 42.7995 64.7682 42.3828 64.9609 41.8516C65.1589 41.3151 65.2578 40.6979 65.2578 40C65.2578 39.3073 65.1615 38.6979 64.9688 38.1719C64.776 37.6458 64.4922 37.2344 64.1172 36.9375C63.7422 36.6406 63.2813 36.4922 62.7344 36.4922C62.1927 36.4922 61.7344 36.6354 61.3594 36.9219C60.9896 37.2083 60.7057 37.6146 60.5078 38.1406C60.3099 38.6667 60.2109 39.2865 60.2109 40ZM77.2578 34V36.5H70.0313V34H77.2578ZM71.6719 31.125H75V42.3125C75 42.6198 75.0469 42.8594 75.1406 43.0312C75.2344 43.1979 75.3646 43.3151 75.5313 43.3828C75.7031 43.4505 75.901 43.4844 76.125 43.4844C76.2813 43.4844 76.4375 43.4714 76.5938 43.4453C76.75 43.4141 76.8698 43.3906 76.9531 43.375L77.4766 45.8516C77.3099 45.9036 77.0755 45.9635 76.7734 46.0313C76.4714 46.1042 76.1042 46.1484 75.6719 46.1641C74.8698 46.1953 74.1667 46.0885 73.5625 45.8437C72.9635 45.599 72.4974 45.2187 72.1641 44.7031C71.8307 44.1875 71.6667 43.5365 71.6719 42.75V31.125ZM79.4258 46V34H82.6523V36.0937H82.7773C82.9961 35.349 83.3633 34.7865 83.8789 34.4063C84.3945 34.0208 84.9883 33.8281 85.6602 33.8281C85.8268 33.8281 86.0065 33.8385 86.1992 33.8594C86.3919 33.8802 86.5612 33.9089 86.707 33.9453V36.8984C86.5508 36.8516 86.3346 36.8099 86.0586 36.7734C85.7826 36.737 85.5299 36.7188 85.3008 36.7188C84.8112 36.7188 84.3737 36.8255 83.9883 37.0391C83.6081 37.2474 83.306 37.5391 83.082 37.9141C82.8633 38.2891 82.7539 38.7214 82.7539 39.2109V46H79.4258ZM93.291 46.2344C92.0775 46.2344 91.028 45.9766 90.1426 45.4609C89.2624 44.9401 88.5827 44.2161 88.1035 43.2891C87.6243 42.3568 87.3848 41.276 87.3848 40.0469C87.3848 38.8073 87.6243 37.724 88.1035 36.7969C88.5827 35.8646 89.2624 35.1406 90.1426 34.625C91.028 34.1042 92.0775 33.8438 93.291 33.8438C94.5046 33.8438 95.5514 34.1042 96.4316 34.625C97.3171 35.1406 97.9993 35.8646 98.4785 36.7969C98.9577 37.724 99.1973 38.8073 99.1973 40.0469C99.1973 41.276 98.9577 42.3568 98.4785 43.2891C97.9993 44.2161 97.3171 44.9401 96.4316 45.4609C95.5514 45.9766 94.5046 46.2344 93.291 46.2344ZM93.3066 43.6562C93.8587 43.6562 94.3197 43.5 94.6895 43.1875C95.0592 42.8698 95.3379 42.4375 95.5254 41.8906C95.7181 41.3437 95.8145 40.7214 95.8145 40.0234C95.8145 39.3255 95.7181 38.7031 95.5254 38.1562C95.3379 37.6094 95.0592 37.1771 94.6895 36.8594C94.3197 36.5417 93.8587 36.3828 93.3066 36.3828C92.7493 36.3828 92.2806 36.5417 91.9004 36.8594C91.5254 37.1771 91.2415 37.6094 91.0488 38.1562C90.8613 38.7031 90.7676 39.3255 90.7676 40.0234C90.7676 40.7214 90.8613 41.3437 91.0488 41.8906C91.2415 42.4375 91.5254 42.8698 91.9004 43.1875C92.2806 43.5 92.7493 43.6562 93.3066 43.6562ZM104.689 39.0625V46H101.361V34H104.533V36.1172H104.674C104.939 35.4193 105.385 34.8672 106.01 34.4609C106.635 34.0495 107.393 33.8438 108.283 33.8438C109.117 33.8438 109.843 34.026 110.463 34.3906C111.083 34.7552 111.564 35.276 111.908 35.9531C112.252 36.625 112.424 37.4271 112.424 38.3594V46H109.096V38.9531C109.101 38.2187 108.913 37.6458 108.533 37.2344C108.153 36.8177 107.63 36.6094 106.963 36.6094C106.515 36.6094 106.119 36.7057 105.775 36.8984C105.437 37.0911 105.171 37.3724 104.979 37.7422C104.791 38.1068 104.695 38.5469 104.689 39.0625Z" fill="white"/>
<path d="M248.641 81.4634H247.258V94.0208H248.585C250.854 94.0208 252.734 91.1995 252.734 87.7144C252.79 84.2846 250.909 81.4634 248.641 81.4634Z" fill="#DB6402"/>
<path d="M247.258 93.6887V94.0207H248.586C249.582 94.0207 250.467 93.5228 251.131 92.6377L247.203 92.693V93.6887H247.258Z" fill="#DBA97F"/>
<path d="M249.583 85.7229L252.515 85.6676C252.293 84.7825 252.017 84.0081 251.574 83.3442H249.527L249.583 85.7229Z" fill="white"/>
<path d="M249.582 82.9574H251.352C251.242 82.8468 251.186 82.7361 251.076 82.6255H249.582V82.9574Z" fill="white"/>
<path d="M247.258 94.0209C249.55 94.0209 251.407 91.1974 251.407 87.7145C251.407 84.2316 249.55 81.4082 247.258 81.4082C244.967 81.4082 243.109 84.2316 243.109 87.7145C243.109 91.1974 244.967 94.0209 247.258 94.0209Z" fill="#FEE475"/>
<path d="M247.26 93.7991C249.46 93.7991 251.243 91.0747 251.243 87.714C251.243 84.3533 249.46 81.6289 247.26 81.6289C245.061 81.6289 243.277 84.3533 243.277 87.714C243.277 91.0747 245.061 93.7991 247.26 93.7991Z" fill="#FED425"/>
<path d="M245.324 93.0251L251.077 85.7783C250.856 84.8932 250.579 84.1188 250.137 83.5103L243.996 91.2549C244.328 91.9187 244.771 92.5825 245.324 93.0251Z" fill="white"/>
<path d="M251.13 89.3184L247.59 93.7992C249.305 93.5779 250.688 91.7524 251.13 89.3184Z" fill="white"/>
<path d="M243.445 85.9446L246.82 81.6851C246.433 81.7404 246.045 81.9063 245.658 82.1276L243.943 84.285C243.777 84.7829 243.556 85.3361 243.445 85.9446Z" fill="white"/>
<path d="M243.771 90.6464L249.801 83.0124C249.746 82.9018 249.635 82.8465 249.58 82.7358L243.605 90.2592C243.661 90.4252 243.716 90.5358 243.771 90.6464Z" fill="white"/>
<path d="M247.258 81.6848C249.526 81.6848 251.352 84.4507 251.407 87.8252C251.407 87.7699 251.407 87.7699 251.407 87.7145C251.407 84.2295 249.526 81.4082 247.258 81.4082C244.99 81.4082 243.109 84.2295 243.109 87.7145C243.109 87.7699 243.109 87.7699 243.109 87.8252C243.165 84.4507 245.046 81.6848 247.258 81.6848Z" fill="white"/>
<path d="M247.368 92.1957C248.926 92.1957 250.189 90.2638 250.189 87.8808C250.189 85.4978 248.926 83.5659 247.368 83.5659C245.81 83.5659 244.547 85.4978 244.547 87.8808C244.547 90.2638 245.81 92.1957 247.368 92.1957Z" fill="white"/>
<path d="M247.259 92.0296C248.817 92.0296 250.08 90.0978 250.08 87.7148C250.08 85.3317 248.817 83.3999 247.259 83.3999C245.701 83.3999 244.438 85.3317 244.438 87.7148C244.438 90.0978 245.701 92.0296 247.259 92.0296Z" fill="#FEB724"/>
<path d="M244.824 87.8801C244.824 85.5014 246.096 83.5652 247.645 83.5652C247.811 83.5652 247.922 83.5652 248.088 83.6205C247.811 83.5099 247.59 83.4546 247.313 83.4546C245.765 83.4546 244.492 85.3908 244.492 87.7695C244.492 89.9269 245.543 91.7524 246.926 92.029C245.654 91.4758 244.824 89.8163 244.824 87.8801Z" fill="#FB9D12"/>
<path d="M282.105 126.437H280.777V138.994H282.105C284.373 138.994 286.254 136.173 286.254 132.688C286.254 129.258 284.373 126.437 282.105 126.437Z" fill="#DB6402"/>
<path d="M280.778 138.662V138.994H282.106C283.101 138.994 283.986 138.496 284.65 137.611L280.723 137.667V138.662H280.778Z" fill="#DBA97F"/>
<path d="M283.044 130.752L285.976 130.697C285.754 129.812 285.478 129.037 285.035 128.374H282.988L283.044 130.752Z" fill="white"/>
<path d="M283.047 127.987H284.817C284.706 127.876 284.651 127.765 284.54 127.655H283.047V127.987Z" fill="white"/>
<path d="M280.778 138.995C283.069 138.995 284.927 136.172 284.927 132.689C284.927 129.206 283.069 126.382 280.778 126.382C278.486 126.382 276.629 129.206 276.629 132.689C276.629 136.172 278.486 138.995 280.778 138.995Z" fill="#FEE475"/>
<path d="M280.78 138.773C282.98 138.773 284.763 136.049 284.763 132.688C284.763 129.327 282.98 126.603 280.78 126.603C278.58 126.603 276.797 129.327 276.797 132.688C276.797 136.049 278.58 138.773 280.78 138.773Z" fill="#FED425"/>
<path d="M278.789 137.999L284.542 130.752C284.321 129.867 284.044 129.092 283.601 128.484L277.461 136.229C277.793 136.948 278.235 137.556 278.789 137.999Z" fill="white"/>
<path d="M284.595 134.292L281.055 138.773C282.77 138.552 284.208 136.727 284.595 134.292Z" fill="white"/>
<path d="M276.906 130.918L280.281 126.659C279.893 126.714 279.506 126.88 279.119 127.101L277.404 129.259C277.238 129.812 277.017 130.31 276.906 130.918Z" fill="white"/>
<path d="M277.236 135.676L283.265 128.042C283.21 127.931 283.099 127.876 283.044 127.765L277.125 135.288C277.18 135.399 277.18 135.51 277.236 135.676Z" fill="white"/>
<path d="M280.778 126.659C283.046 126.659 284.871 129.425 284.927 132.799C284.927 132.744 284.927 132.744 284.927 132.689C284.927 129.204 283.046 126.382 280.778 126.382C278.51 126.382 276.629 129.204 276.629 132.689C276.629 132.744 276.629 132.744 276.629 132.799C276.629 129.425 278.51 126.659 280.778 126.659Z" fill="white"/>
<path d="M280.833 137.224C282.391 137.224 283.654 135.293 283.654 132.91C283.654 130.527 282.391 128.595 280.833 128.595C279.275 128.595 278.012 130.527 278.012 132.91C278.012 135.293 279.275 137.224 280.833 137.224Z" fill="white"/>
<path d="M280.778 137.003C282.336 137.003 283.6 135.071 283.6 132.688C283.6 130.305 282.336 128.374 280.778 128.374C279.22 128.374 277.957 130.305 277.957 132.688C277.957 135.071 279.22 137.003 280.778 137.003Z" fill="#FEB724"/>
<path d="M278.289 132.854C278.289 130.476 279.561 128.539 281.11 128.539C281.276 128.539 281.387 128.539 281.553 128.595C281.276 128.484 281.055 128.429 280.778 128.429C279.229 128.429 277.957 130.365 277.957 132.744C277.957 134.901 279.008 136.727 280.391 137.003C279.119 136.45 278.289 134.79 278.289 132.854Z" fill="#FB9D12"/>
<path d="M233.048 147.957H231.941V160.514H233.048C235.98 160.514 238.358 157.693 238.358 154.208C238.358 150.778 235.98 147.957 233.048 147.957Z" fill="#DB6402"/>
<path d="M231.942 160.182V160.514H233.048C234.265 160.514 235.427 160.016 236.312 159.131L231.887 159.187V160.182H231.942Z" fill="#DBA97F"/>
<path d="M234.266 152.272L238.027 152.216C237.751 151.331 237.363 150.557 236.866 149.893H234.266V152.272Z" fill="white"/>
<path d="M234.266 149.507H236.478C236.368 149.396 236.257 149.285 236.146 149.175H234.266V149.507Z" fill="white"/>
<path d="M231.94 160.57C234.872 160.57 237.25 157.746 237.25 154.263C237.25 150.78 234.872 147.957 231.94 147.957C229.007 147.957 226.629 150.78 226.629 154.263C226.629 157.746 229.007 160.57 231.94 160.57Z" fill="#FEE475"/>
<path d="M231.942 160.348C234.783 160.348 237.086 157.623 237.086 154.263C237.086 150.902 234.783 148.178 231.942 148.178C229.1 148.178 226.797 150.902 226.797 154.263C226.797 157.623 229.1 160.348 231.942 160.348Z" fill="#FED425"/>
<path d="M229.394 159.518L236.751 152.271C236.475 151.386 236.088 150.612 235.59 150.003L227.734 157.748C228.177 158.467 228.73 159.076 229.394 159.518Z" fill="white"/>
<path d="M236.864 155.867L232.328 160.348C234.541 160.127 236.311 158.301 236.864 155.867Z" fill="white"/>
<path d="M227.07 152.493L231.385 148.234C230.887 148.289 230.389 148.455 229.892 148.676L227.734 150.834C227.402 151.332 227.181 151.885 227.07 152.493Z" fill="white"/>
<path d="M227.459 157.195L235.204 149.561C235.093 149.451 235.038 149.395 234.927 149.285L227.293 156.808C227.348 156.974 227.404 157.085 227.459 157.195Z" fill="white"/>
<path d="M231.94 148.234C234.816 148.234 237.195 151 237.25 154.374C237.25 154.319 237.25 154.319 237.25 154.263C237.25 150.778 234.871 147.957 231.94 147.957C229.008 147.957 226.629 150.778 226.629 154.263C226.629 154.319 226.629 154.319 226.629 154.374C226.684 150.944 229.063 148.234 231.94 148.234Z" fill="white"/>
<path d="M232.046 158.744C234.062 158.744 235.697 156.813 235.697 154.43C235.697 152.047 234.062 150.115 232.046 150.115C230.029 150.115 228.395 152.047 228.395 154.43C228.395 156.813 230.029 158.744 232.046 158.744Z" fill="white"/>
<path d="M231.94 158.578C233.957 158.578 235.591 156.647 235.591 154.264C235.591 151.881 233.957 149.949 231.94 149.949C229.924 149.949 228.289 151.881 228.289 154.264C228.289 156.647 229.924 158.578 231.94 158.578Z" fill="#FEB724"/>
<path d="M228.566 154.651C228.566 152.272 230.17 150.336 232.217 150.336C233.323 150.336 234.263 150.889 234.927 151.774C234.263 150.668 233.157 149.949 231.94 149.949C229.949 149.949 228.289 151.885 228.289 154.264C228.289 155.37 228.621 156.366 229.174 157.14C228.787 156.421 228.566 155.536 228.566 154.651Z" fill="#FB9D12"/>
<path d="M182.364 148.51H181.258V161.068H182.364C185.296 161.068 187.675 158.246 187.675 154.761C187.675 151.332 185.296 148.51 182.364 148.51Z" fill="#DB6402"/>
<path d="M181.258 160.736V161.068H182.365C183.582 161.068 184.744 160.57 185.629 159.685L181.203 159.74V160.736H181.258Z" fill="#DBA97F"/>
<path d="M183.633 152.77L187.394 152.715C187.118 151.829 186.731 151.055 186.233 150.391H183.633V152.77Z" fill="white"/>
<path d="M183.582 150.004H185.795C185.684 149.893 185.573 149.783 185.463 149.672H183.582V150.004Z" fill="white"/>
<path d="M181.264 161.067C184.197 161.067 186.574 158.244 186.574 154.761C186.574 151.278 184.197 148.455 181.264 148.455C178.331 148.455 175.953 151.278 175.953 154.761C175.953 158.244 178.331 161.067 181.264 161.067Z" fill="#FEE475"/>
<path d="M181.266 160.846C184.107 160.846 186.41 158.122 186.41 154.761C186.41 151.401 184.107 148.676 181.266 148.676C178.424 148.676 176.121 151.401 176.121 154.761C176.121 158.122 178.424 160.846 181.266 160.846Z" fill="#FED425"/>
<path d="M178.777 160.072L186.134 152.825C185.858 151.94 185.47 151.166 184.972 150.557L177.117 158.302C177.504 158.966 178.113 159.629 178.777 160.072Z" fill="white"/>
<path d="M186.243 156.366L181.707 160.847C183.864 160.625 185.69 158.8 186.243 156.366Z" fill="white"/>
<path d="M176.395 152.991L180.709 148.731C180.212 148.787 179.714 148.953 179.216 149.174L177.058 151.331C176.782 151.829 176.56 152.382 176.395 152.991Z" fill="white"/>
<path d="M176.783 157.693L184.528 150.059C184.417 149.948 184.362 149.893 184.251 149.782L176.617 157.306C176.673 157.472 176.728 157.582 176.783 157.693Z" fill="white"/>
<path d="M181.264 148.731C184.14 148.731 186.519 151.497 186.574 154.872C186.574 154.816 186.574 154.816 186.574 154.761C186.574 151.276 184.196 148.455 181.264 148.455C178.332 148.455 175.953 151.276 175.953 154.761C175.953 154.816 175.953 154.816 175.953 154.872C176.064 151.497 178.387 148.731 181.264 148.731Z" fill="white"/>
<path d="M181.432 159.242C183.449 159.242 185.083 157.31 185.083 154.927C185.083 152.544 183.449 150.612 181.432 150.612C179.416 150.612 177.781 152.544 177.781 154.927C177.781 157.31 179.416 159.242 181.432 159.242Z" fill="white"/>
<path d="M181.264 159.076C183.281 159.076 184.915 157.144 184.915 154.761C184.915 152.378 183.281 150.446 181.264 150.446C179.248 150.446 177.613 152.378 177.613 154.761C177.613 157.144 179.248 159.076 181.264 159.076Z" fill="#FEB724"/>
<path d="M177.89 155.148C177.89 152.77 179.494 150.834 181.541 150.834C182.647 150.834 183.588 151.387 184.252 152.272C183.588 151.165 182.481 150.446 181.264 150.446C179.273 150.446 177.613 152.382 177.613 154.761C177.613 155.868 177.945 156.863 178.498 157.638C178.111 156.919 177.89 156.089 177.89 155.148Z" fill="#FB9D12"/>
<path d="M111.29 128.042H110.184V140.6H111.29C114.222 140.6 116.601 137.779 116.601 134.294C116.601 130.808 114.222 128.042 111.29 128.042Z" fill="#DB6402"/>
<path d="M110.184 140.268V140.6H111.291C112.508 140.6 113.669 140.102 114.554 139.217L110.129 139.272V140.268H110.184Z" fill="#DBA97F"/>
<path d="M112.508 132.302L116.27 132.247C115.993 131.362 115.606 130.587 115.108 129.923H112.508V132.302Z" fill="white"/>
<path d="M112.508 129.536H114.721C114.61 129.425 114.499 129.315 114.389 129.204H112.508V129.536Z" fill="white"/>
<path d="M110.182 140.6C113.115 140.6 115.492 137.777 115.492 134.294C115.492 130.811 113.115 127.987 110.182 127.987C107.249 127.987 104.871 130.811 104.871 134.294C104.871 137.777 107.249 140.6 110.182 140.6Z" fill="#FEE475"/>
<path d="M110.184 140.378C113.025 140.378 115.328 137.654 115.328 134.293C115.328 130.932 113.025 128.208 110.184 128.208C107.342 128.208 105.039 130.932 105.039 134.293C105.039 137.654 107.342 140.378 110.184 140.378Z" fill="#FED425"/>
<path d="M107.636 139.604L114.994 132.357C114.717 131.472 114.33 130.698 113.832 130.089L105.977 137.834C106.419 138.498 106.972 139.106 107.636 139.604Z" fill="white"/>
<path d="M115.106 135.897L110.57 140.378C112.783 140.157 114.553 138.331 115.106 135.897Z" fill="white"/>
<path d="M105.254 132.524L109.569 128.264C109.071 128.319 108.573 128.485 108.075 128.707L105.918 130.864C105.641 131.362 105.42 131.915 105.254 132.524Z" fill="white"/>
<path d="M105.701 137.226L113.446 129.592C113.335 129.481 113.28 129.426 113.169 129.315L105.535 136.838C105.59 137.004 105.646 137.115 105.701 137.226Z" fill="white"/>
<path d="M110.182 128.264C113.058 128.264 115.437 131.03 115.492 134.404C115.492 134.349 115.492 134.349 115.492 134.294C115.492 130.809 113.114 127.987 110.182 127.987C107.25 127.987 104.871 130.809 104.871 134.294C104.871 134.349 104.871 134.349 104.871 134.404C104.926 130.975 107.305 128.264 110.182 128.264Z" fill="white"/>
<path d="M110.288 138.775C112.304 138.775 113.939 136.843 113.939 134.46C113.939 132.077 112.304 130.145 110.288 130.145C108.271 130.145 106.637 132.077 106.637 134.46C106.637 136.843 108.271 138.775 110.288 138.775Z" fill="white"/>
<path d="M110.182 138.609C112.199 138.609 113.833 136.677 113.833 134.294C113.833 131.911 112.199 129.979 110.182 129.979C108.166 129.979 106.531 131.911 106.531 134.294C106.531 136.677 108.166 138.609 110.182 138.609Z" fill="#FEB724"/>
<path d="M106.753 134.681C106.753 132.302 108.357 130.366 110.404 130.366C111.511 130.366 112.451 130.919 113.115 131.805C112.451 130.698 111.345 129.979 110.128 129.979C108.136 129.979 106.477 131.915 106.477 134.294C106.477 135.4 106.808 136.396 107.362 137.17C107.03 136.451 106.753 135.622 106.753 134.681Z" fill="#FB9D12"/>
<path d="M296.825 47.0557H295.719V59.613H296.825C299.757 59.613 302.136 56.7918 302.136 53.3067C302.08 49.8769 299.702 47.0557 296.825 47.0557Z" fill="#DB6402"/>
<path d="M295.719 59.281V59.613H296.826C298.043 59.613 299.204 59.1151 300.09 58.23L295.664 58.2853V59.281H295.719Z" fill="#DBA97F"/>
<path d="M298.043 51.3704L301.805 51.3151C301.528 50.43 301.141 49.6555 300.643 48.9917H298.043V51.3704Z" fill="white"/>
<path d="M297.988 48.6049H300.201C300.09 48.4942 299.98 48.3836 299.869 48.2729H297.988V48.6049Z" fill="white"/>
<path d="M295.721 59.6127C298.654 59.6127 301.031 56.7892 301.031 53.3063C301.031 49.8234 298.654 47 295.721 47C292.788 47 290.41 49.8234 290.41 53.3063C290.41 56.7892 292.788 59.6127 295.721 59.6127Z" fill="#FEE475"/>
<path d="M295.723 59.3908C298.564 59.3908 300.867 56.6665 300.867 53.3058C300.867 49.9451 298.564 47.2207 295.723 47.2207C292.881 47.2207 290.578 49.9451 290.578 53.3058C290.578 56.6665 292.881 59.3908 295.723 59.3908Z" fill="#FED425"/>
<path d="M293.175 58.6169L300.533 51.3701C300.256 50.485 299.869 49.7106 299.371 49.1021L291.516 56.8467C291.903 57.5658 292.511 58.1743 293.175 58.6169Z" fill="white"/>
<path d="M300.646 54.9102L296.109 59.391C298.267 59.1697 300.092 57.3442 300.646 54.9102Z" fill="white"/>
<path d="M290.793 51.5364L295.108 47.2769C294.61 47.3322 294.112 47.4981 293.614 47.7194L291.457 49.8768C291.18 50.43 290.959 50.9279 290.793 51.5364Z" fill="white"/>
<path d="M291.186 56.2939L298.93 48.6599C298.82 48.5493 298.764 48.4939 298.654 48.3833L291.02 55.9067C291.075 56.0173 291.13 56.1279 291.186 56.2939Z" fill="white"/>
<path d="M295.721 47.2766C298.597 47.2766 300.976 50.0425 301.031 53.417C301.031 53.3617 301.031 53.3617 301.031 53.3063C301.031 49.8213 298.653 47 295.721 47C292.789 47 290.41 49.8213 290.41 53.3063C290.41 53.3617 290.41 53.3617 290.41 53.417C290.465 50.0425 292.789 47.2766 295.721 47.2766Z" fill="white"/>
<path d="M295.827 57.8421C297.843 57.8421 299.478 55.9103 299.478 53.5273C299.478 51.1442 297.843 49.2124 295.827 49.2124C293.81 49.2124 292.176 51.1442 292.176 53.5273C292.176 55.9103 293.81 57.8421 295.827 57.8421Z" fill="white"/>
<path d="M295.721 57.6214C297.738 57.6214 299.372 55.6896 299.372 53.3066C299.372 50.9235 297.738 48.9917 295.721 48.9917C293.705 48.9917 292.07 50.9235 292.07 53.3066C292.07 55.6896 293.705 57.6214 295.721 57.6214Z" fill="#FEB724"/>
<path d="M292.292 53.6938C292.292 51.3151 293.896 49.3789 295.943 49.3789C297.05 49.3789 297.99 49.9321 298.654 50.8172C297.99 49.7108 296.884 48.9917 295.667 48.9917C293.675 48.9917 292.016 50.9279 292.016 53.3066C292.016 54.4129 292.348 55.4087 292.901 56.1831C292.569 55.464 292.292 54.6342 292.292 53.6938Z" fill="#FB9D12"/>
<path d="M92.4189 86.3867H91.3125V98.9441H92.4189C95.3508 98.9441 97.7295 96.1228 97.7295 92.6377C97.7295 89.208 95.3508 86.3867 92.4189 86.3867Z" fill="#DB6402"/>
<path d="M91.3131 98.6121V98.944H92.4195C93.6365 98.944 94.7982 98.4461 95.6833 97.561L91.2578 97.6164V98.6121H91.3131Z" fill="#DBA97F"/>
<path d="M93.6875 90.6463L97.4492 90.591C97.1726 89.7059 96.7854 88.9314 96.2875 88.2676H93.6875V90.6463Z" fill="white"/>
<path d="M93.6367 87.8803H95.8495C95.7388 87.7696 95.6282 87.659 95.5176 87.5483H93.6367V87.8803Z" fill="white"/>
<path d="M91.3106 98.9447C94.2436 98.9447 96.6212 96.1213 96.6212 92.6384C96.6212 89.1555 94.2436 86.332 91.3106 86.332C88.3776 86.332 86 89.1555 86 92.6384C86 96.1213 88.3776 98.9447 91.3106 98.9447Z" fill="#FEE475"/>
<path d="M91.3126 98.7229C94.1539 98.7229 96.4573 95.9985 96.4573 92.6378C96.4573 89.2771 94.1539 86.5527 91.3126 86.5527C88.4713 86.5527 86.168 89.2771 86.168 92.6378C86.168 95.9985 88.4713 98.7229 91.3126 98.7229Z" fill="#FED425"/>
<path d="M88.765 97.9489L96.1224 90.7022C95.8458 89.8171 95.4586 89.0426 94.9607 88.4341L87.1055 96.1787C87.548 96.8425 88.1565 97.5064 88.765 97.9489Z" fill="white"/>
<path d="M96.2901 94.2422L91.7539 98.723C93.9113 98.5017 95.7369 96.6762 96.2901 94.2422Z" fill="white"/>
<path d="M86.4414 90.8684L90.7563 86.6089C90.2584 86.6642 89.7605 86.8302 89.2627 87.0514L87.1052 89.2089C86.8286 89.7067 86.6074 90.2599 86.4414 90.8684Z" fill="white"/>
<path d="M86.83 95.5703L94.5746 87.9363C94.464 87.8256 94.4087 87.7703 94.2981 87.6597L86.6641 95.183C86.7194 95.349 86.7747 95.4596 86.83 95.5703Z" fill="white"/>
<path d="M91.3106 86.6086C94.1872 86.6086 96.5659 89.3746 96.6212 92.749C96.6212 92.6937 96.6212 92.6937 96.6212 92.6384C96.6212 89.1533 94.2425 86.332 91.3106 86.332C88.3787 86.332 86 89.1533 86 92.6384C86 92.6937 86 92.6937 86 92.749C86.1106 89.3746 88.434 86.6086 91.3106 86.6086Z" fill="white"/>
<path d="M91.4167 97.1195C93.4331 97.1195 95.0677 95.1876 95.0677 92.8046C95.0677 90.4216 93.4331 88.4897 91.4167 88.4897C89.4002 88.4897 87.7656 90.4216 87.7656 92.8046C87.7656 95.1876 89.4002 97.1195 91.4167 97.1195Z" fill="white"/>
<path d="M91.3112 96.9535C93.3276 96.9535 94.9622 95.0216 94.9622 92.6386C94.9622 90.2556 93.3276 88.3237 91.3112 88.3237C89.2948 88.3237 87.6602 90.2556 87.6602 92.6386C87.6602 95.0216 89.2948 96.9535 91.3112 96.9535Z" fill="#FEB724"/>
<path d="M87.9368 93.0258C87.9368 90.6471 89.541 88.711 91.5878 88.711C92.6942 88.711 93.6346 89.2642 94.2984 90.1493C93.6346 89.0429 92.5282 88.3237 91.3112 88.3237C89.3197 88.3237 87.6602 90.2599 87.6602 92.6386C87.6602 93.745 87.9921 94.7407 88.5453 95.5152C88.158 94.796 87.9368 93.9663 87.9368 93.0258Z" fill="#FB9D12"/>
</g>
<defs>
<linearGradient id="paint0_linear_1292_6465" x1="160.105" y1="21.4602" x2="160.105" y2="152.111" gradientUnits="userSpaceOnUse">
<stop stop-color="#0F1419"/>
<stop offset="0.4153" stop-color="#314C3C"/>
<stop offset="0.6146" stop-color="#3A5D52"/>
<stop offset="1" stop-color="#4A7C78"/>
</linearGradient>
<linearGradient id="paint1_linear_1292_6465" x1="160.106" y1="133.521" x2="160.106" y2="180.449" gradientUnits="userSpaceOnUse">
<stop stop-color="#E0F096"/>
<stop offset="0.3883" stop-color="#EDF6B1"/>
<stop offset="1" stop-color="#FFFFD7"/>
</linearGradient>
<linearGradient id="paint2_linear_1292_6465" x1="163.603" y1="240.407" x2="163.603" y2="91.4078" gradientUnits="userSpaceOnUse">
<stop stop-color="#FBFF89"/>
<stop offset="0.1505" stop-color="#F1F986"/>
<stop offset="0.4076" stop-color="#D6E87F"/>
<stop offset="0.7378" stop-color="#AACD74"/>
<stop offset="1" stop-color="#82B569"/>
</linearGradient>
<linearGradient id="paint3_linear_1292_6465" x1="53.6845" y1="60.4607" x2="53.6845" y2="219.543" gradientUnits="userSpaceOnUse">
<stop stop-color="#63BF00"/>
<stop offset="0.1815" stop-color="#61BC01"/>
<stop offset="0.3354" stop-color="#5BB105"/>
<stop offset="0.4794" stop-color="#51A00C"/>
<stop offset="0.6174" stop-color="#428715"/>
<stop offset="0.751" stop-color="#306721"/>
<stop offset="0.8795" stop-color="#19402F"/>
<stop offset="1" stop-color="#00153F"/>
</linearGradient>
<linearGradient id="paint4_linear_1292_6465" x1="32.382" y1="58.7768" x2="41.1986" y2="74.0472" gradientUnits="userSpaceOnUse">
<stop stop-color="#03BF00" stop-opacity="0"/>
<stop offset="0.1727" stop-color="#03A709" stop-opacity="0.1727"/>
<stop offset="0.5371" stop-color="#026A1F" stop-opacity="0.5371"/>
<stop offset="1" stop-color="#00153F"/>
</linearGradient>
<linearGradient id="paint5_linear_1292_6465" x1="88.1297" y1="73.7186" x2="73.3836" y2="83.3865" gradientUnits="userSpaceOnUse">
<stop stop-color="#03BF00" stop-opacity="0"/>
<stop offset="0.1727" stop-color="#03A709" stop-opacity="0.1727"/>
<stop offset="0.5371" stop-color="#026A1F" stop-opacity="0.5371"/>
<stop offset="1" stop-color="#00153F"/>
</linearGradient>
<linearGradient id="paint6_linear_1292_6465" x1="27.8619" y1="68.8853" x2="38.7099" y2="79.7334" gradientUnits="userSpaceOnUse">
<stop stop-color="#03BF00" stop-opacity="0"/>
<stop offset="0.1727" stop-color="#03A709" stop-opacity="0.1727"/>
<stop offset="0.5371" stop-color="#026A1F" stop-opacity="0.5371"/>
<stop offset="1" stop-color="#00153F"/>
</linearGradient>
<linearGradient id="paint7_linear_1292_6465" x1="23.675" y1="70.2503" x2="31.8558" y2="77.3683" gradientUnits="userSpaceOnUse">
<stop stop-color="#03BF00" stop-opacity="0"/>
<stop offset="0.1727" stop-color="#03A709" stop-opacity="0.1727"/>
<stop offset="0.5371" stop-color="#026A1F" stop-opacity="0.5371"/>
<stop offset="1" stop-color="#00153F"/>
</linearGradient>
<linearGradient id="paint8_linear_1292_6465" x1="24.1966" y1="183.781" x2="24.1966" y2="50.6765" gradientUnits="userSpaceOnUse">
<stop stop-color="#03BF00" stop-opacity="0"/>
<stop offset="0.1727" stop-color="#03A709" stop-opacity="0.1727"/>
<stop offset="0.5371" stop-color="#026A1F" stop-opacity="0.5371"/>
<stop offset="1" stop-color="#00153F"/>
</linearGradient>
<linearGradient id="paint9_linear_1292_6465" x1="83.5852" y1="196.28" x2="83.5852" y2="109.737" gradientUnits="userSpaceOnUse">
<stop stop-color="#03BF00" stop-opacity="0"/>
<stop offset="0.1727" stop-color="#03A709" stop-opacity="0.1727"/>
<stop offset="0.5371" stop-color="#026A1F" stop-opacity="0.5371"/>
<stop offset="1" stop-color="#00153F"/>
</linearGradient>
<linearGradient id="paint10_linear_1292_6465" x1="63.1464" y1="235.729" x2="63.1464" y2="106.351" gradientUnits="userSpaceOnUse">
<stop stop-color="#03BF00" stop-opacity="0"/>
<stop offset="0.1727" stop-color="#03A709" stop-opacity="0.1727"/>
<stop offset="0.5371" stop-color="#026A1F" stop-opacity="0.5371"/>
<stop offset="1" stop-color="#00153F"/>
</linearGradient>
<linearGradient id="paint11_linear_1292_6465" x1="199.328" y1="18.0771" x2="199.328" y2="226.784" gradientUnits="userSpaceOnUse">
<stop stop-color="#63BF00"/>
<stop offset="0.1815" stop-color="#61BC01"/>
<stop offset="0.3354" stop-color="#5BB105"/>
<stop offset="0.4794" stop-color="#51A00C"/>
<stop offset="0.6174" stop-color="#428715"/>
<stop offset="0.751" stop-color="#306721"/>
<stop offset="0.8795" stop-color="#19402F"/>
<stop offset="1" stop-color="#00153F"/>
</linearGradient>
<linearGradient id="paint12_linear_1292_6465" x1="199.325" y1="-26.2134" x2="199.325" y2="208.857" gradientUnits="userSpaceOnUse">
<stop stop-color="#FBFF89"/>
<stop offset="0.1505" stop-color="#F1F986" stop-opacity="0.8495"/>
<stop offset="0.4076" stop-color="#D6E87F" stop-opacity="0.5924"/>
<stop offset="0.7378" stop-color="#AACD74" stop-opacity="0.2622"/>
<stop offset="1" stop-color="#82B569" stop-opacity="0"/>
</linearGradient>
<linearGradient id="paint13_linear_1292_6465" x1="179.814" y1="14.7969" x2="187.89" y2="28.785" gradientUnits="userSpaceOnUse">
<stop stop-color="#03BF00" stop-opacity="0"/>
<stop offset="0.1727" stop-color="#03A709" stop-opacity="0.1727"/>
<stop offset="0.5371" stop-color="#026A1F" stop-opacity="0.5371"/>
<stop offset="1" stop-color="#00153F"/>
</linearGradient>
<linearGradient id="paint14_linear_1292_6465" x1="230.881" y1="28.4845" x2="217.373" y2="37.3406" gradientUnits="userSpaceOnUse">
<stop stop-color="#03BF00" stop-opacity="0"/>
<stop offset="0.1727" stop-color="#03A709" stop-opacity="0.1727"/>
<stop offset="0.5371" stop-color="#026A1F" stop-opacity="0.5371"/>
<stop offset="1" stop-color="#00153F"/>
</linearGradient>
<linearGradient id="paint15_linear_1292_6465" x1="175.673" y1="24.0572" x2="185.61" y2="33.9945" gradientUnits="userSpaceOnUse">
<stop stop-color="#03BF00" stop-opacity="0"/>
<stop offset="0.1727" stop-color="#03A709" stop-opacity="0.1727"/>
<stop offset="0.5371" stop-color="#026A1F" stop-opacity="0.5371"/>
<stop offset="1" stop-color="#00153F"/>
</linearGradient>
<linearGradient id="paint16_linear_1292_6465" x1="171.836" y1="25.3072" x2="179.33" y2="31.8276" gradientUnits="userSpaceOnUse">
<stop stop-color="#03BF00" stop-opacity="0"/>
<stop offset="0.1727" stop-color="#03A709" stop-opacity="0.1727"/>
<stop offset="0.5371" stop-color="#026A1F" stop-opacity="0.5371"/>
<stop offset="1" stop-color="#00153F"/>
</linearGradient>
<linearGradient id="paint17_linear_1292_6465" x1="172.316" y1="177.376" x2="172.316" y2="-23.6476" gradientUnits="userSpaceOnUse">
<stop stop-color="#03BF00" stop-opacity="0"/>
<stop offset="0.1727" stop-color="#03A709" stop-opacity="0.1727"/>
<stop offset="0.5371" stop-color="#026A1F" stop-opacity="0.5371"/>
<stop offset="1" stop-color="#00153F"/>
</linearGradient>
<linearGradient id="paint18_linear_1292_6465" x1="226.718" y1="196.284" x2="226.718" y2="117.008" gradientUnits="userSpaceOnUse">
<stop stop-color="#03BF00" stop-opacity="0"/>
<stop offset="0.1727" stop-color="#03A709" stop-opacity="0.1727"/>
<stop offset="0.5371" stop-color="#026A1F" stop-opacity="0.5371"/>
<stop offset="1" stop-color="#00153F"/>
</linearGradient>
<linearGradient id="paint19_linear_1292_6465" x1="207.994" y1="232.421" x2="207.994" y2="113.907" gradientUnits="userSpaceOnUse">
<stop stop-color="#03BF00" stop-opacity="0"/>
<stop offset="0.1727" stop-color="#03A709" stop-opacity="0.1727"/>
<stop offset="0.5371" stop-color="#026A1F" stop-opacity="0.5371"/>
<stop offset="1" stop-color="#00153F"/>
</linearGradient>
<linearGradient id="paint20_linear_1292_6465" x1="97.7314" y1="102.006" x2="97.7314" y2="212.447" gradientUnits="userSpaceOnUse">
<stop stop-color="#95BF00"/>
<stop offset="0.1922" stop-color="#92BD01"/>
<stop offset="0.3553" stop-color="#87B806"/>
<stop offset="0.5078" stop-color="#76B00D"/>
<stop offset="0.6538" stop-color="#5DA418"/>
<stop offset="0.7953" stop-color="#3D9425"/>
<stop offset="0.9315" stop-color="#168236"/>
<stop offset="1" stop-color="#00773F"/>
</linearGradient>
<linearGradient id="paint21_linear_1292_6465" x1="86.0001" y1="100.449" x2="90.856" y2="108.86" gradientUnits="userSpaceOnUse">
<stop stop-color="#03BF00" stop-opacity="0"/>
<stop offset="0.1727" stop-color="#03A709" stop-opacity="0.1727"/>
<stop offset="0.5371" stop-color="#026A1F" stop-opacity="0.5371"/>
<stop offset="1" stop-color="#00153F"/>
</linearGradient>
<linearGradient id="paint22_linear_1292_6465" x1="116.703" y1="108.679" x2="108.581" y2="114.004" gradientUnits="userSpaceOnUse">
<stop stop-color="#03BF00" stop-opacity="0"/>
<stop offset="0.1727" stop-color="#03A709" stop-opacity="0.1727"/>
<stop offset="0.5371" stop-color="#026A1F" stop-opacity="0.5371"/>
<stop offset="1" stop-color="#00153F"/>
</linearGradient>
<linearGradient id="paint23_linear_1292_6465" x1="83.5106" y1="106.017" x2="89.4854" y2="111.992" gradientUnits="userSpaceOnUse">
<stop stop-color="#03BF00" stop-opacity="0"/>
<stop offset="0.1727" stop-color="#03A709" stop-opacity="0.1727"/>
<stop offset="0.5371" stop-color="#026A1F" stop-opacity="0.5371"/>
<stop offset="1" stop-color="#00153F"/>
</linearGradient>
<linearGradient id="paint24_linear_1292_6465" x1="81.2037" y1="106.768" x2="85.7095" y2="110.689" gradientUnits="userSpaceOnUse">
<stop stop-color="#03BF00" stop-opacity="0"/>
<stop offset="0.1727" stop-color="#03A709" stop-opacity="0.1727"/>
<stop offset="0.5371" stop-color="#026A1F" stop-opacity="0.5371"/>
<stop offset="1" stop-color="#00153F"/>
</linearGradient>
<linearGradient id="paint25_linear_1292_6465" x1="81.4911" y1="186.717" x2="81.4911" y2="84.7449" gradientUnits="userSpaceOnUse">
<stop stop-color="#03BF00" stop-opacity="0"/>
<stop offset="0.1727" stop-color="#03A709" stop-opacity="0.1727"/>
<stop offset="0.5371" stop-color="#026A1F" stop-opacity="0.5371"/>
<stop offset="1" stop-color="#00153F"/>
</linearGradient>
<linearGradient id="paint26_linear_1292_6465" x1="114.198" y1="196.283" x2="114.198" y2="115.169" gradientUnits="userSpaceOnUse">
<stop stop-color="#03BF00" stop-opacity="0"/>
<stop offset="0.1727" stop-color="#03A709" stop-opacity="0.1727"/>
<stop offset="0.5371" stop-color="#026A1F" stop-opacity="0.5371"/>
<stop offset="1" stop-color="#00153F"/>
</linearGradient>
<linearGradient id="paint27_linear_1292_6465" x1="102.942" y1="237.126" x2="102.942" y2="103.163" gradientUnits="userSpaceOnUse">
<stop stop-color="#03BF00" stop-opacity="0"/>
<stop offset="0.1727" stop-color="#03A709" stop-opacity="0.1727"/>
<stop offset="0.5371" stop-color="#026A1F" stop-opacity="0.5371"/>
<stop offset="1" stop-color="#00153F"/>
</linearGradient>
<linearGradient id="paint28_linear_1292_6465" x1="324.839" y1="102.006" x2="324.839" y2="212.447" gradientUnits="userSpaceOnUse">
<stop stop-color="#63BF00"/>
<stop offset="0.1815" stop-color="#61BC01"/>
<stop offset="0.3354" stop-color="#5BB105"/>
<stop offset="0.4794" stop-color="#51A00C"/>
<stop offset="0.6174" stop-color="#428715"/>
<stop offset="0.751" stop-color="#306721"/>
<stop offset="0.8795" stop-color="#19402F"/>
<stop offset="1" stop-color="#00153F"/>
</linearGradient>
<linearGradient id="paint29_linear_1292_6465" x1="313.107" y1="100.449" x2="317.963" y2="108.86" gradientUnits="userSpaceOnUse">
<stop stop-color="#03BF00" stop-opacity="0"/>
<stop offset="0.1727" stop-color="#03A709" stop-opacity="0.1727"/>
<stop offset="0.5371" stop-color="#026A1F" stop-opacity="0.5371"/>
<stop offset="1" stop-color="#00153F"/>
</linearGradient>
<linearGradient id="paint30_linear_1292_6465" x1="310.615" y1="106.017" x2="316.589" y2="111.992" gradientUnits="userSpaceOnUse">
<stop stop-color="#03BF00" stop-opacity="0"/>
<stop offset="0.1727" stop-color="#03A709" stop-opacity="0.1727"/>
<stop offset="0.5371" stop-color="#026A1F" stop-opacity="0.5371"/>
<stop offset="1" stop-color="#00153F"/>
</linearGradient>
<linearGradient id="paint31_linear_1292_6465" x1="308.311" y1="106.768" x2="312.817" y2="110.689" gradientUnits="userSpaceOnUse">
<stop stop-color="#03BF00" stop-opacity="0"/>
<stop offset="0.1727" stop-color="#03A709" stop-opacity="0.1727"/>
<stop offset="0.5371" stop-color="#026A1F" stop-opacity="0.5371"/>
<stop offset="1" stop-color="#00153F"/>
</linearGradient>
<linearGradient id="paint32_linear_1292_6465" x1="308.598" y1="186.717" x2="308.598" y2="84.7449" gradientUnits="userSpaceOnUse">
<stop stop-color="#03BF00" stop-opacity="0"/>
<stop offset="0.1727" stop-color="#03A709" stop-opacity="0.1727"/>
<stop offset="0.5371" stop-color="#026A1F" stop-opacity="0.5371"/>
<stop offset="1" stop-color="#00153F"/>
</linearGradient>
<linearGradient id="paint33_linear_1292_6465" x1="277.149" y1="249.169" x2="277.149" y2="70.5464" gradientUnits="userSpaceOnUse">
<stop stop-color="#FBFF89"/>
<stop offset="0.1505" stop-color="#F1F986"/>
<stop offset="0.4076" stop-color="#D6E87F"/>
<stop offset="0.7378" stop-color="#AACD74"/>
<stop offset="1" stop-color="#82B569"/>
</linearGradient>
<linearGradient id="paint34_linear_1292_6465" x1="-14.1421" y1="249.169" x2="-14.1421" y2="70.5464" gradientUnits="userSpaceOnUse">
<stop stop-color="#FBFF89"/>
<stop offset="0.1505" stop-color="#F1F986"/>
<stop offset="0.4076" stop-color="#D6E87F"/>
<stop offset="0.7378" stop-color="#AACD74"/>
<stop offset="1" stop-color="#82B569"/>
</linearGradient>
<linearGradient id="paint35_linear_1292_6465" x1="257.203" y1="221.214" x2="257.203" y2="137.101" gradientUnits="userSpaceOnUse">
<stop stop-color="#FBFF89"/>
<stop offset="0.1505" stop-color="#F1F986"/>
<stop offset="0.4076" stop-color="#D6E87F"/>
<stop offset="0.7378" stop-color="#AACD74"/>
<stop offset="1" stop-color="#82B569"/>
</linearGradient>
<radialGradient id="paint36_radial_1292_6465" cx="0" cy="0" r="1" gradientUnits="userSpaceOnUse" gradientTransform="translate(186.106 84.7969) scale(2.93777 2.93777)">
<stop offset="0.00529101" stop-color="#FEFF55"/>
<stop offset="0.00946094" stop-color="#FEFF55"/>
<stop offset="0.4197" stop-color="#FFDF3D"/>
<stop offset="0.7645" stop-color="#FFCB2F"/>
<stop offset="1" stop-color="#FFC42A"/>
</radialGradient>
<radialGradient id="paint37_radial_1292_6465" cx="0" cy="0" r="1" gradientUnits="userSpaceOnUse" gradientTransform="translate(193.926 80.8076) scale(2.93773 2.93773)">
<stop offset="0.00529101" stop-color="#FEFF55"/>
<stop offset="0.00946094" stop-color="#FEFF55"/>
<stop offset="0.4197" stop-color="#FFDF3D"/>
<stop offset="0.7645" stop-color="#FFCB2F"/>
<stop offset="1" stop-color="#FFC42A"/>
</radialGradient>
<radialGradient id="paint38_radial_1292_6465" cx="0" cy="0" r="1" gradientUnits="userSpaceOnUse" gradientTransform="translate(186.106 76.7053) scale(2.93773)">
<stop offset="0.00529101" stop-color="#FEFF55"/>
<stop offset="0.00946094" stop-color="#FEFF55"/>
<stop offset="0.4197" stop-color="#FFDF3D"/>
<stop offset="0.7645" stop-color="#FFCB2F"/>
<stop offset="1" stop-color="#FFC42A"/>
</radialGradient>
<radialGradient id="paint39_radial_1292_6465" cx="0" cy="0" r="1" gradientUnits="userSpaceOnUse" gradientTransform="translate(193.926 72.7161) scale(2.93773 2.93773)">
<stop offset="0.00529101" stop-color="#FEFF55"/>
<stop offset="0.00946094" stop-color="#FEFF55"/>
<stop offset="0.4197" stop-color="#FFDF3D"/>
<stop offset="0.7645" stop-color="#FFCB2F"/>
<stop offset="1" stop-color="#FFC42A"/>
</radialGradient>
<radialGradient id="paint40_radial_1292_6465" cx="0" cy="0" r="1" gradientUnits="userSpaceOnUse" gradientTransform="translate(186.106 68.7287) scale(2.93773 2.93773)">
<stop offset="0.00529101" stop-color="#FEFF55"/>
<stop offset="0.00946094" stop-color="#FEFF55"/>
<stop offset="0.4197" stop-color="#FFDF3D"/>
<stop offset="0.7645" stop-color="#FFCB2F"/>
<stop offset="1" stop-color="#FFC42A"/>
</radialGradient>
<radialGradient id="paint41_radial_1292_6465" cx="0" cy="0" r="1" gradientUnits="userSpaceOnUse" gradientTransform="translate(214.842 84.7969) scale(2.93777 2.93777)">
<stop offset="0.00529101" stop-color="#FEFF55"/>
<stop offset="0.00946094" stop-color="#FEFF55"/>
<stop offset="0.4197" stop-color="#FFDF3D"/>
<stop offset="0.7645" stop-color="#FFCB2F"/>
<stop offset="1" stop-color="#FFC42A"/>
</radialGradient>
<radialGradient id="paint42_radial_1292_6465" cx="0" cy="0" r="1" gradientUnits="userSpaceOnUse" gradientTransform="translate(222.662 80.8076) scale(2.93772 2.93773)">
<stop offset="0.00529101" stop-color="#FEFF55"/>
<stop offset="0.00946094" stop-color="#FEFF55"/>
<stop offset="0.4197" stop-color="#FFDF3D"/>
<stop offset="0.7645" stop-color="#FFCB2F"/>
<stop offset="1" stop-color="#FFC42A"/>
</radialGradient>
<radialGradient id="paint43_radial_1292_6465" cx="0" cy="0" r="1" gradientUnits="userSpaceOnUse" gradientTransform="translate(214.842 76.7053) scale(2.93777)">
<stop offset="0.00529101" stop-color="#FEFF55"/>
<stop offset="0.00946094" stop-color="#FEFF55"/>
<stop offset="0.4197" stop-color="#FFDF3D"/>
<stop offset="0.7645" stop-color="#FFCB2F"/>
<stop offset="1" stop-color="#FFC42A"/>
</radialGradient>
<radialGradient id="paint44_radial_1292_6465" cx="0" cy="0" r="1" gradientUnits="userSpaceOnUse" gradientTransform="translate(222.662 72.7161) scale(2.93772 2.93773)">
<stop offset="0.00529101" stop-color="#FEFF55"/>
<stop offset="0.00946094" stop-color="#FEFF55"/>
<stop offset="0.4197" stop-color="#FFDF3D"/>
<stop offset="0.7645" stop-color="#FFCB2F"/>
<stop offset="1" stop-color="#FFC42A"/>
</radialGradient>
<radialGradient id="paint45_radial_1292_6465" cx="0" cy="0" r="1" gradientUnits="userSpaceOnUse" gradientTransform="translate(214.842 68.7287) scale(2.93777 2.93777)">
<stop offset="0.00529101" stop-color="#FEFF55"/>
<stop offset="0.00946094" stop-color="#FEFF55"/>
<stop offset="0.4197" stop-color="#FFDF3D"/>
<stop offset="0.7645" stop-color="#FFCB2F"/>
<stop offset="1" stop-color="#FFC42A"/>
</radialGradient>
<linearGradient id="paint46_linear_1292_6465" x1="159.845" y1="214.061" x2="159.845" y2="109.197" gradientUnits="userSpaceOnUse">
<stop stop-color="#006A0C"/>
<stop offset="0.0969212" stop-color="#08630C"/>
<stop offset="0.6243" stop-color="#2E3D0C"/>
</linearGradient>
<linearGradient id="paint47_linear_1292_6465" x1="-25.0234" y1="250.568" x2="-25.0234" y2="-70.2512" gradientUnits="userSpaceOnUse">
<stop stop-color="#006A0C"/>
<stop offset="0.0969212" stop-color="#08630C"/>
<stop offset="0.6243" stop-color="#2E3D0C"/>
</linearGradient>
<linearGradient id="paint48_linear_1292_6465" x1="36.1307" y1="427.209" x2="36.1307" y2="106.389" gradientUnits="userSpaceOnUse">
<stop stop-color="#006A0C"/>
<stop offset="0.0969212" stop-color="#08630C"/>
<stop offset="0.6243" stop-color="#2E3D0C"/>
</linearGradient>
<linearGradient id="paint49_linear_1292_6465" x1="198.86" y1="298.154" x2="198.86" y2="175.003" gradientUnits="userSpaceOnUse">
<stop stop-color="#006A0C"/>
<stop offset="0.0969212" stop-color="#08630C"/>
<stop offset="0.6243" stop-color="#2E3D0C"/>
</linearGradient>
<clipPath id="clip0_1292_6465">
<rect width="320" height="196" rx="10" fill="white"/>
</clipPath>
</defs>
</svg>
